<!-- Generated by IcoMoon.io -->
<svg version="1.1" xmlns="http://www.w3.org/2000/svg" width="828" height="1024" viewBox="0 0 828 1024">
<title></title>
<g id="icomoon-ignore">
</g>
<path d="M250.16 184.238v-40.878c0-67.748 55.132-122.88 122.88-122.88h81.92c67.748 0 122.88 55.132 122.88 122.88v40.878h163.84c45.22 0.041 81.92 36.782 81.92 81.92v655.442c0 45.138-36.7 81.879-81.92 81.92h-655.36c-45.138 0-81.92-36.741-81.92-81.92v-655.442c0-45.179 36.782-81.92 81.92-81.92h163.84zM250.16 266.158h-163.84v655.442h655.237l0.123-655.442h-163.84v40.96c0 22.61-18.309 40.96-40.96 40.96s-40.96-18.35-40.96-40.96v-40.96h-163.84v40.96c0 22.61-18.309 40.96-40.96 40.96s-40.96-18.35-40.96-40.96v-40.96zM373.040 552.96v-81.92c0-22.61 18.309-40.96 40.96-40.96s40.96 18.35 40.96 40.96v81.92h81.92c22.651 0 40.96 18.35 40.96 40.96s-18.268 40.919-40.96 40.96h-81.92v81.92c0 22.61-18.309 40.96-40.96 40.96s-40.96-18.35-40.96-40.96v-81.92h-81.92c-22.651 0-40.96-18.35-40.96-40.96s18.309-40.96 40.96-40.96h81.92zM495.92 184.238v-40.878c0-22.61-18.35-40.96-40.96-40.96h-81.92c-22.61 0-40.96 18.35-40.96 40.96v40.878h163.84z"></path>
</svg>
