<?xml version="1.0" encoding="UTF-8" standalone="no"?><!DOCTYPE svg PUBLIC "-//W3C//DTD SVG 1.1//EN" "http://www.w3.org/Graphics/SVG/1.1/DTD/svg11.dtd"><svg width="100%" height="100%" viewBox="0 0 125 77" version="1.1" xmlns="http://www.w3.org/2000/svg" xmlns:xlink="http://www.w3.org/1999/xlink" xml:space="preserve" xmlns:serif="http://www.serif.com/" style="fill-rule:evenodd;clip-rule:evenodd;stroke-linejoin:round;stroke-miterlimit:1.41421;"><path d="M123.532,72.313c0,2.309 -1.873,4.18 -4.181,4.18l-114.669,0c-2.308,0 -4.182,-1.871 -4.182,-4.18l0,-67.633c0,-2.309 1.874,-4.18 4.182,-4.18l114.669,0c2.308,0 4.181,1.871 4.181,4.18l0,67.633Z" style="fill:#f9f9f9;fill-rule:nonzero;stroke:#dfdfdf;stroke-width:1px;"/><path d="M38.217,36.671l0,-1.254l-0.601,1.254l-5.192,0l-0.651,-1.346l0,1.346l-9.707,0l-1.148,-2.715l-1.944,0l-1.213,2.715l-5.037,0l0,-8.195l3.692,-8.348l7.064,0l0.991,2.365l0,-2.347l8.642,0l1.899,3.982l1.857,-4l27.276,0c0,0 1.43,-0.019 2.369,0.643l-0.003,-0.643l6.87,0l0,0.904c0,0 1.234,-0.904 3.062,-0.904l12.124,0l1.066,2.4l0,-2.4l7.769,0l1.41,2.4l0,-2.4l7.428,0l0,16.559l-7.631,0l-1.793,-2.887l0,2.871l-9.484,0l-1.335,-2.957l-1.858,0l-1.253,2.957l-5.738,0c0,0 -2.14,-0.027 -3.746,-1.176l0,1.176l-11.428,0l0,-3.863c0,-0.561 -0.431,-0.522 -0.431,-0.522l-0.416,0l0,4.385l-22.91,0Z" style="fill:#fff;fill-rule:nonzero;"/><path d="M32.516,40.257l15.017,0l2.165,2.453l2.216,-2.453l11.546,0c0,0 1.085,0.027 2.115,0.576l0,-0.576l10.28,0c1.305,0 2.402,0.652 2.402,0.652l0,-0.652l13.215,0l0,0.602c0,0 0.939,-0.602 2.205,-0.602l8.61,0l0,0.602c0,0 1.083,-0.602 2.23,-0.602l6.758,0l0,15.604c0,0 -0.886,1.005 -2.726,1.005l-8.911,0l0,-0.496c0,0 -0.848,0.496 -2.14,0.496l-23.673,0l0,-4.033c0,-0.396 -0.174,-0.469 -0.527,-0.469l-0.326,0l0,4.502l-7.397,0l0,-4.474c0,0 -0.822,0.441 -2.191,0.441l-2.662,0l0,4.033l-9.119,0l-2.076,-2.531l-2.217,2.531l-14.794,0l0,-16.609Z" style="fill:#fff;fill-rule:nonzero;"/><path d="M79.842,42.747l9.423,0l0,2.527l-6.538,0l0,2.203l6.355,0l0,2.227l-6.355,0l0,2.318l6.538,0l0,2.465l-9.423,0l0,-11.74Z" style="fill:#0078a9;fill-rule:nonzero;"/><path d="M107.47,47.322c3.543,0.182 3.838,1.951 3.838,3.838c0,2.199 -1.809,3.381 -3.694,3.381l-6.055,0l0,-2.518l4.718,0c0.799,0 1.99,0 1.99,-1.127c0,-0.535 -0.208,-0.877 -1.061,-0.967c-0.378,-0.054 -1.779,-0.132 -1.991,-0.136c-3.2,-0.084 -3.945,-1.676 -3.945,-3.614c0,-2.201 1.547,-3.404 3.435,-3.404l6.055,0l0,2.516l-4.432,0c-1.007,0.01 -2.094,-0.119 -2.094,1.019c0,0.721 0.535,0.866 1.217,0.932c0.237,0 1.808,0.082 2.019,0.08" style="fill:#0078a9;fill-rule:nonzero;"/><path d="M96.618,47.322c3.543,0.182 3.839,1.951 3.839,3.838c0,2.199 -1.808,3.381 -3.695,3.381l-6.054,0l0,-2.518l4.718,0c0.799,0 1.992,0 1.992,-1.127c0,-0.535 -0.21,-0.877 -1.062,-0.967c-0.38,-0.054 -1.782,-0.132 -1.992,-0.136c-3.2,-0.084 -3.943,-1.676 -3.943,-3.614c0,-2.201 1.545,-3.404 3.433,-3.404l6.054,0l0,2.516l-4.429,0c-1.01,0.01 -2.097,-0.119 -2.097,1.019c0,0.721 0.537,0.866 1.219,0.932c0.235,0 1.809,0.082 2.017,0.08" style="fill:#0078a9;fill-rule:nonzero;"/><path d="M61.472,48.111l-3.59,0l0,-2.818l3.6,0c1.206,0 1.588,0.773 1.588,1.349c0,0.787 -0.419,1.469 -1.598,1.469m-6.499,5.275l-4.141,-4.9l4.141,-4.586l0,9.486Zm-11.02,-1.363l-6.644,0l0,-2.318l6.356,0l0,-2.227l-6.356,0l0,-2.203l7.01,0.016l2.806,3.195l-3.172,3.537Zm18.488,-9.25l-10.115,0l-3.303,3.643l-3.196,-3.668l-11.361,0l0,11.74l10.995,0l3.458,-3.879l3.381,3.906l5.53,0l0,-3.986l3.878,0c1.494,0 4.22,-0.051 4.22,-4.166c0,-2.936 -2.071,-3.59 -3.487,-3.59" style="fill:#0078a9;fill-rule:nonzero;"/><path d="M73.875,47.952l-3.589,0l0,-2.66l3.602,0c1.206,0 1.585,0.773 1.585,1.349c0,0.786 -0.418,1.311 -1.598,1.311m2.489,1.215c1.573,-0.785 1.992,-1.834 1.992,-3.25c0,-2.514 -2.043,-3.143 -3.46,-3.143l-7.493,0l0,11.74l2.883,0l0,-4.142l3.774,0c0.995,0 1.388,0.996 1.413,1.992l0.079,2.15l2.804,0l-0.105,-2.412c0,-1.888 -0.522,-2.779 -1.887,-2.935" style="fill:#0078a9;fill-rule:nonzero;"/><rect x="68.558" y="22.48" width="2.883" height="11.754" style="fill:#0078a9;"/><path d="M44.962,22.493l9.42,0l0,2.527l-6.536,0l0,2.203l6.353,0l0,2.227l-6.353,0l0,2.318l6.536,0l0,2.465l-9.42,0l0,-11.74Z" style="fill:#0078a9;fill-rule:nonzero;"/><path d="M62.567,27.671l-3.59,0l0,-2.66l3.603,0c1.205,0 1.585,0.773 1.585,1.349c0,0.788 -0.418,1.311 -1.598,1.311m2.489,1.215c1.574,-0.783 1.993,-1.834 1.993,-3.25c0,-2.516 -2.044,-3.143 -3.461,-3.143l-7.494,0l0,11.74l2.883,0l0,-4.14l3.772,0c0.998,0 1.39,0.994 1.416,1.99l0.08,2.15l2.804,0l-0.105,-2.412c0,-1.886 -0.524,-2.777 -1.888,-2.935" style="fill:#0078a9;fill-rule:nonzero;"/><path d="M18.004,29.079l1.719,-4.104l1.791,4.104l-3.51,0Zm20.31,-6.586l-3.537,7.875l-3.525,-7.875l-4.52,0l0,11.307l-5.033,-11.307l-3.813,0l-5.137,11.74l3.041,0l1.125,-2.621l5.754,0l1.141,2.621l5.804,0l0,-8.715l3.851,8.715l2.622,0l3.943,-8.57l0,8.57l2.883,0l0,-11.74l-4.599,0Z" style="fill:#0078a9;fill-rule:nonzero;"/><path d="M83.481,29.085l1.716,-4.104l1.808,4.104l-3.524,0Zm17.705,-6.598l0,8.129l-4.86,-8.129l-4.26,0l0,11.026l-4.912,-11.02l-3.815,0l-3.97,9.094c0,0 -1.678,0 -1.846,-0.041c-0.697,-0.143 -1.782,-0.633 -1.795,-2.703l0,-0.852c0,-2.752 1.495,-2.953 3.41,-2.953l1.78,0l0,-2.551l-3.764,0c-1.311,0 -4.161,1 -4.257,5.823c-0.066,3.25 1.349,5.929 4.545,5.929l3.801,0l1.126,-2.621l5.753,0l1.139,2.621l5.687,0l0,-8.597l5.188,8.597l3.931,0l0,-11.752l-2.881,0Z" style="fill:#0078a9;fill-rule:nonzero;"/></svg>
