<!-- Generated by IcoMoon.io -->
<svg version="1.1" xmlns="http://www.w3.org/2000/svg" width="880" height="1024" viewBox="0 0 880 1024">
<title></title>
<g id="icomoon-ignore">
</g>
<path d="M339.456 555.024c-104.544-40.256-178.72-141.76-178.72-260.256 0-153.984 125.312-279.264 279.264-279.264s279.264 125.312 279.264 279.264c0 118.496-74.208 220-178.72 260.256 186.656 44.512 333.888 208.384 333.888 391.392v31.040c0 16.992-13.696 30.816-31.040 31.040h-806.784c-17.12 0-31.040-13.888-31.040-31.040v-31.040c0-183.008 147.232-346.88 333.888-391.392zM67.616 946.416h744.736c0-181.792-173.984-341.344-372.352-341.344s-372.352 159.52-372.352 341.344zM440 77.552c-119.776 0-217.216 97.44-217.216 217.216s97.44 217.216 217.216 217.216c119.776 0 217.216-97.44 217.216-217.216s-97.44-217.216-217.216-217.216z"></path>
</svg>
