<!-- Generated by IcoMoon.io -->
<svg version="1.1" xmlns="http://www.w3.org/2000/svg" width="1008" height="1024" viewBox="0 0 1008 1024">
<title></title>
<g id="icomoon-ignore">
</g>
<path d="M628.080 108.624v-62.048c0-17.12 13.856-31.040 31.040-31.040s31.040 13.888 31.040 31.040v62.048h248.256c34.208 0 62.048 27.84 62.048 62.048v775.744c0 34.208-27.808 62.016-62.048 62.048h-868.832c-34.208 0-62.048-27.84-62.048-62.048v-775.744c0-34.24 27.872-62.048 62.048-62.048h248.256v-62.048c0-17.12 13.856-31.040 31.040-31.040s31.040 13.888 31.040 31.040v62.048h248.256zM938.384 170.672h-248.256v31.040c0 17.12-13.856 31.040-31.040 31.040s-31.040-13.888-31.040-31.040v-31.040h-248.256v31.040c0 17.12-13.856 31.040-31.040 31.040s-31.040-13.888-31.040-31.040v-31.040h-248.256v775.744h868.768l0.096-775.744zM286.736 760.272h-62.048c-17.152 0-31.040-13.888-31.040-31.040v-62.048c0-17.12 13.856-31.040 31.040-31.040h62.048c17.152 0 31.040 13.888 31.040 31.040v62.048c0 17.12-13.824 31.008-31.040 31.040zM534.992 760.272h-62.048c-17.152 0-31.040-13.888-31.040-31.040v-62.048c0-17.12 13.856-31.040 31.040-31.040h62.048c17.152 0 31.040 13.888 31.040 31.040v62.048c0 17.12-13.856 31.008-31.040 31.040zM783.216 760.272h-62.048c-17.152 0-31.040-13.888-31.040-31.040v-62.048c0-17.12 13.856-31.040 31.040-31.040h62.048c17.152 0 31.040 13.888 31.040 31.040v62.048c0 17.12-13.856 31.008-31.040 31.040zM286.736 512.016h-62.048c-17.152 0-31.040-13.888-31.040-31.040v-62.048c0-17.12 13.856-31.040 31.040-31.040h62.048c17.152 0 31.040 13.888 31.040 31.040v62.048c0 17.12-13.824 31.008-31.040 31.040zM534.992 512.016h-62.048c-17.152 0-31.040-13.888-31.040-31.040v-62.048c0-17.12 13.856-31.040 31.040-31.040h62.048c17.152 0 31.040 13.888 31.040 31.040v62.048c0 17.12-13.856 31.008-31.040 31.040zM783.216 512.016h-62.048c-17.152 0-31.040-13.888-31.040-31.040v-62.048c0-17.12 13.856-31.040 31.040-31.040h62.048c17.152 0 31.040 13.888 31.040 31.040v62.048c0 17.12-13.856 31.008-31.040 31.040z"></path>
</svg>
