<!-- Generated by IcoMoon.io -->
<svg version="1.1" xmlns="http://www.w3.org/2000/svg" width="34" height="32" viewBox="0 0 34 32">
<title>call</title>
<path d="M31.046 13.32c-0.375 0-0.693-0.13-0.952-0.39-0.262-0.26-0.392-0.578-0.392-0.952 0-1.272-0.25-2.475-0.749-3.61-0.501-1.135-1.176-2.125-2.031-2.968s-1.854-1.51-3-2.001c-1.146-0.489-2.376-0.734-3.688-0.734-0.375 0-0.693-0.13-0.952-0.39-0.262-0.262-0.392-0.578-0.392-0.954 0-0.354 0.13-0.661 0.392-0.92 0.26-0.262 0.578-0.392 0.952-0.392 1.687 0 3.266 0.312 4.734 0.937s2.756 1.48 3.859 2.564c1.105 1.082 1.975 2.353 2.611 3.812 0.634 1.459 0.952 3.010 0.952 4.657 0 0.375-0.13 0.693-0.392 0.952-0.26 0.26-0.578 0.39-0.952 0.39zM28.328 13.32c0 0.376-0.13 0.693-0.392 0.954-0.26 0.26-0.578 0.39-0.952 0.39s-0.693-0.13-0.952-0.39c-0.262-0.262-0.392-0.578-0.392-0.954 0-0.917-0.177-1.781-0.531-2.594-0.354-0.811-0.84-1.519-1.453-2.123-0.616-0.604-1.329-1.079-2.14-1.423-0.813-0.343-1.688-0.516-2.626-0.516-0.375 0-0.693-0.13-0.952-0.39-0.262-0.262-0.392-0.578-0.392-0.954 0-0.354 0.13-0.661 0.392-0.92 0.26-0.262 0.578-0.392 0.952-0.392 1.312 0 2.541 0.245 3.688 0.734s2.146 1.158 3 2.001c0.855 0.843 1.527 1.828 2.016 2.953s0.734 2.332 0.734 3.624zM11.078 13.071l8.094 7.968 4.531-2.249c0.23-0.126 0.478-0.173 0.749-0.141s0.51 0.141 0.719 0.328l6.75 5.751c0.145 0.104 0.256 0.233 0.328 0.392 0.073 0.156 0.12 0.328 0.141 0.514 0.021 0.188 0 0.365-0.062 0.533-0.062 0.166-0.156 0.312-0.282 0.437l-3.906 4.407c-0.25 0.25-0.572 0.474-0.968 0.672s-0.907 0.297-1.532 0.297c-0.875 0-1.907-0.241-3.093-0.719-1.188-0.48-2.475-1.152-3.861-2.016s-2.833-1.901-4.343-3.11c-1.512-1.208-3.016-2.552-4.516-4.032-1.626-1.604-3.151-3.285-4.578-5.047-1.429-1.76-2.59-3.458-3.486-5.094-0.894-1.636-1.457-3.13-1.687-4.484s0.053-2.417 0.843-3.187l4.469-3.97c0.147-0.104 0.303-0.186 0.469-0.25 0.168-0.062 0.344-0.083 0.533-0.062 0.186 0 0.358 0.041 0.514 0.126 0.156 0.083 0.297 0.186 0.424 0.312l5.843 6.686c0.168 0.188 0.271 0.418 0.312 0.689 0.041 0.269 0 0.531-0.124 0.781l-2.281 4.469zM6.17 3.226l-3.375 2.968c-0.186 0.188-0.186 0.672 0 1.453 0.188 0.781 0.625 1.786 1.314 3.016 0.687 1.229 1.655 2.656 2.906 4.282 1.25 1.624 2.822 3.384 4.717 5.28 1.5 1.48 2.959 2.782 4.376 3.908 1.416 1.124 2.739 2.072 3.968 2.842 1.229 0.772 2.323 1.355 3.281 1.751s1.719 0.593 2.281 0.593c0.147 0 0.26-0.015 0.344-0.045 0.083-0.032 0.136-0.058 0.156-0.079l2.999-3.343-5.030-4.282-4.625 2.281c-0.25 0.126-0.516 0.162-0.798 0.109-0.28-0.051-0.525-0.171-0.734-0.36l-9.468-9.344c-0.188-0.207-0.307-0.452-0.36-0.734-0.053-0.28-0.015-0.546 0.109-0.796l2.313-4.531-4.376-4.969z"></path>
</svg>
