<!-- Generated by IcoMoon.io -->
<svg version="1.1" xmlns="http://www.w3.org/2000/svg" width="772" height="1024" viewBox="0 0 772 1024">
<title></title>
<g id="icomoon-ignore">
</g>
<path d="M703.443 958.701h-639.629v-703.443h639.629v703.443zM384.371 63.814c69.751 0 126.145 56.394 127.629 127.629h-256.742c2.968-69.751 59.362-127.629 129.113-127.629zM703.443 191.443h-127.629c-2.968-105.368-87.559-191.443-191.443-191.443-105.368 0-191.443 86.075-192.928 191.443h-127.629c-35.617 0-63.814 28.197-63.814 63.814v703.443c0 35.617 28.197 63.814 63.814 63.814h639.629c35.617 0 63.814-28.197 63.814-63.814v-703.443c0-34.133-28.197-63.814-63.814-63.814z"></path>
<path d="M287.907 463.026h191.443c17.809 0 31.165-14.841 31.165-32.649s-14.841-31.165-31.165-31.165h-191.443c-17.809 0-32.649 14.841-32.649 31.165 0 19.293 14.841 32.649 32.649 32.649z"></path>
</svg>
