<!-- Generated by IcoMoon.io -->
<svg version="1.1" xmlns="http://www.w3.org/2000/svg" width="869" height="1024" viewBox="0 0 869 1024">
<title></title>
<g id="icomoon-ignore">
</g>
<path d="M263.833 170.582v-42.581c0-70.571 57.429-128 128-128h85.333c70.571 0 128 57.429 128 128v42.581h170.667c47.019 0 85.333 38.272 85.333 85.333v682.752c0 46.976-38.187 85.205-85.333 85.333h-682.667c-47.061 0-85.333-38.272-85.333-85.333v-682.752c0-47.061 38.272-85.333 85.333-85.333h170.667zM775.833 255.916h-170.667v42.667c0 23.552-19.072 42.667-42.667 42.667s-42.667-19.115-42.667-42.667v-42.667h-170.667v42.667c0 23.552-19.072 42.667-42.667 42.667s-42.667-19.115-42.667-42.667v-42.667h-170.667v682.752h682.539l0.128-682.752zM421.060 725.334c-8.875 0-17.749-2.773-25.387-8.448l-114.645-85.333c-18.901-14.080-22.827-40.789-8.747-59.691 14.080-18.859 40.832-22.869 59.691-8.747l82.176 61.141 115.456-139.477c15.104-18.133 41.984-20.693 60.117-5.632 18.176 15.019 20.651 41.899 5.632 60.075l-141.355 170.667c-8.405 10.155-20.565 15.445-32.939 15.445zM477.166 85.334h-85.333c-23.68 0.128-42.667 19.2-42.667 42.667v42.581h170.667v-42.581c0-23.467-18.987-42.539-42.667-42.667z"></path>
</svg>
