<!-- Generated by IcoMoon.io -->
<svg version="1.1" xmlns="http://www.w3.org/2000/svg" width="1170" height="1024" viewBox="0 0 1170 1024">
<title></title>
<g id="icomoon-ignore">
</g>
<path d="M1042.688 874.862h-145.591c-47.909 0-92.599-21.467-122.587-58.953l-107.63-145.737c-11.922-16.201-8.485-38.985 7.717-50.981 16.165-11.959 38.985-8.485 50.944 7.68l106.715 144.603c15.141 18.907 39.022 30.427 64.841 30.464h145.554l-83.529-83.566c-14.263-14.226-14.263-37.303 0-51.529 14.226-14.226 37.266-14.226 51.493 0l148.078 148.37 0.146 0.183 1.353 1.829 0.585 0.805 0.219 0.329 1.17 1.938 0.439 0.731 0.073 0.11 0.146 0.293 0.914 1.975 0.402 0.841 0.073 0.11 0.146 0.329 0.658 1.938 0.366 0.951 0.11 0.439 0.512 2.085 0.256 0.987 0.037 0.11 0.037 0.219 0.402 2.633 0.073 0.658v0.037c0.256 2.414 0.256 4.791 0 7.278v0.11l-0.219 1.463-0.256 1.755-0.037 0.146-0.037 0.256-0.439 1.829-0.329 1.207-0.037 0.146-0.073 0.329-0.695 1.865-0.329 0.987-0.073 0.146-0.146 0.329-0.914 1.938-0.622 1.243-1.317 2.231-0.293 0.439-0.037 0.073c-1.426 2.158-3.072 4.169-4.937 5.961l-145.335 145.518c-7.095 7.131-16.421 10.679-25.746 10.679s-18.651-3.547-25.746-10.679c-14.263-14.226-14.263-37.303 0-51.529l83.493-83.602zM1042.651 145.81l-83.529-83.566c-14.263-14.263-14.263-37.339 0-51.566 14.226-14.226 37.266-14.226 51.493 0l145.737 145.774 1.829 2.048 0.658 0.731 1.207 1.646 0.731 1.024 0.073 0.073 0.146 0.219 0.951 1.609 0.658 1.097 0.11 0.146 0.11 0.256 0.731 1.573 0.585 1.207 0.073 0.219 0.146 0.256 0.512 1.536 0.512 1.317 0.037 0.256 0.073 0.219 0.439 1.682 0.329 1.353 0.073 0.366 0.329 2.194 0.146 1.061v0.073c0.256 2.45 0.256 4.901 0 7.278v0.073l-0.146 1.061-0.329 2.194-0.073 0.366-0.366 1.39-0.402 1.646-0.073 0.219-0.037 0.256-0.512 1.39-0.512 1.499-0.11 0.219-0.11 0.256-0.622 1.317-0.695 1.426-0.219 0.439-0.805 1.317-0.805 1.353-0.11 0.183-0.11 0.146-1.061 1.463-0.878 1.17-0.073 0.11-0.073 0.073-1.902 2.085-0.439 0.512-145.664 145.774c-7.095 7.131-16.421 10.679-25.746 10.679s-18.651-3.547-25.746-10.679c-14.263-14.226-14.263-37.303 0-51.529l83.456-83.566h-141.934c-27.063 0.037-52.407 13.056-68.169 34.816l-402.651 556.325c-29.367 40.631-76.873 64.914-127.195 64.987h-266.277c-20.114 0-36.425-16.311-36.425-36.462 0-20.114 16.311-36.462 36.425-36.462h266.277c26.953 0 52.407-13.019 68.206-34.816l191.634-264.777-1.646-1.938-189.44-251.319c-15.397-18.944-39.241-30.354-64.805-30.354h-270.226c-20.114 0-36.425-16.347-36.425-36.462 0-20.151 16.311-36.462 36.425-36.462h270.226c47.689 0 92.233 21.321 122.185 58.441l178.286 236.471 166.437-229.925c29.403-40.667 76.983-64.987 127.159-64.987h141.934z"></path>
</svg>
