<?xml version="1.0" encoding="UTF-8" standalone="no"?><!DOCTYPE svg PUBLIC "-//W3C//DTD SVG 1.1//EN" "http://www.w3.org/Graphics/SVG/1.1/DTD/svg11.dtd"><svg width="100%" height="100%" viewBox="0 0 125 78" version="1.1" xmlns="http://www.w3.org/2000/svg" xmlns:xlink="http://www.w3.org/1999/xlink" xml:space="preserve" xmlns:serif="http://www.serif.com/" style="fill-rule:evenodd;clip-rule:evenodd;stroke-linejoin:round;stroke-miterlimit:1.41421;"><path d="M123.931,72.713c0,2.309 -1.873,4.182 -4.181,4.182l-115.069,0c-2.307,0 -4.181,-1.873 -4.181,-4.182l0,-68.031c0,-2.311 1.874,-4.182 4.181,-4.182l115.069,0c2.308,0 4.181,1.871 4.181,4.182l0,68.031Z" style="fill:#f9f9f9;fill-rule:nonzero;stroke:#dfdfdf;stroke-width:1px;"/><path d="M32.563,76.479l86.771,0c2.308,0 4.181,-1.873 4.181,-4.182l0,-29.353c-8.328,5.279 -39.725,23.48 -90.952,33.535" style="fill:#f58220;fill-rule:nonzero;"/><path d="M57.47,38.669c-0.018,3.382 2.776,6.144 6.236,6.163c3.46,0.019 6.284,-2.712 6.303,-6.095c0.018,-3.383 -2.776,-6.144 -6.236,-6.163c-3.461,-0.019 -6.285,2.712 -6.303,6.095Z" style="fill:#f58220;"/><path d="M30.889,41.627c-0.724,0.652 -1.655,0.934 -3.135,0.934l-0.615,0l0,-7.762l0.615,0c1.48,0 2.375,0.264 3.135,0.949c0.792,0.705 1.263,1.795 1.263,2.92c0,1.129 -0.471,2.258 -1.263,2.959m-2.677,-8.816l-3.364,0l0,11.738l3.348,0c1.776,0 3.06,-0.422 4.187,-1.354c1.336,-1.111 2.13,-2.783 2.13,-4.509c0,-3.465 -2.59,-5.875 -6.301,-5.875" style="fill:#001722;fill-rule:nonzero;"/><rect x="35.569" y="32.811" width="2.288" height="11.738" style="fill:#001722;"/><path d="M43.455,37.313c-1.375,-0.508 -1.778,-0.844 -1.778,-1.477c0,-0.738 0.717,-1.3 1.706,-1.3c0.686,0 1.25,0.281 1.849,0.947l1.196,-1.563c-0.986,-0.865 -2.165,-1.304 -3.451,-1.304c-2.075,0 -3.66,1.443 -3.66,3.361c0,1.621 0.74,2.447 2.887,3.221c0.897,0.316 1.355,0.527 1.584,0.67c0.458,0.3 0.688,0.72 0.688,1.213c0,0.953 -0.758,1.654 -1.781,1.654c-1.091,0 -1.97,-0.543 -2.498,-1.565l-1.476,1.428c1.053,1.547 2.321,2.235 4.065,2.235c2.376,0 4.047,-1.586 4.047,-3.856c0,-1.865 -0.773,-2.711 -3.378,-3.664" style="fill:#001722;fill-rule:nonzero;"/><path d="M47.554,38.686c0,3.453 2.712,6.127 6.196,6.127c0.987,0 1.831,-0.193 2.871,-0.686l0,-2.693c-0.918,0.916 -1.727,1.283 -2.766,1.283c-2.305,0 -3.943,-1.672 -3.943,-4.049c0,-2.25 1.689,-4.029 3.838,-4.029c1.09,0 1.918,0.389 2.871,1.32l0,-2.693c-1.003,-0.51 -1.833,-0.719 -2.817,-0.719c-3.469,0 -6.25,2.729 -6.25,6.139" style="fill:#001722;fill-rule:nonzero;"/><path d="M75.17,40.695l-3.134,-7.885l-2.499,0l4.983,12.039l1.231,0l5.07,-12.039l-2.481,0l-3.17,7.885Z" style="fill:#001722;fill-rule:nonzero;"/><path d="M81.861,44.549l6.494,0l0,-1.988l-4.206,0l0,-3.17l4.046,0l0,-1.987l-4.046,0l0,-2.605l4.206,0l0,-1.988l-6.494,0l0,11.738Z" style="fill:#001722;fill-rule:nonzero;"/><path d="M92.823,38.213l-0.667,0l0,-3.557l0.704,0c1.428,0 2.203,0.602 2.203,1.743c0,1.179 -0.775,1.814 -2.24,1.814m4.595,-1.937c0,-2.2 -1.513,-3.465 -4.154,-3.465l-3.397,0l0,11.738l2.289,0l0,-4.717l0.3,0l3.167,4.717l2.816,0l-3.698,-4.945c1.727,-0.352 2.677,-1.532 2.677,-3.328" style="fill:#001722;fill-rule:nonzero;"/><path d="M98.6,33.826l-0.046,0l0,-0.268l0.049,0c0.121,0 0.183,0.043 0.183,0.131c0,0.09 -0.065,0.137 -0.186,0.137m0.433,-0.141c0,-0.205 -0.138,-0.318 -0.391,-0.318l-0.333,0l0,1.035l0.245,0l0,-0.402l0.289,0.402l0.308,0l-0.345,-0.428c0.145,-0.039 0.227,-0.144 0.227,-0.289" style="fill:#231f20;fill-rule:nonzero;"/><path d="M98.69,34.623c-0.399,0 -0.723,-0.328 -0.723,-0.738c0,-0.414 0.322,-0.742 0.723,-0.742c0.391,0 0.711,0.334 0.711,0.742c0,0.406 -0.32,0.738 -0.711,0.738m0.001,-1.645c-0.501,0 -0.901,0.403 -0.901,0.905c0,0.5 0.402,0.902 0.901,0.902c0.491,0 0.893,-0.406 0.893,-0.902c0,-0.496 -0.402,-0.905 -0.893,-0.905" style="fill:#231f20;fill-rule:nonzero;"/><defs><radialGradient id="_Radial1" cx="0" cy="0" r="1" gradientUnits="userSpaceOnUse" gradientTransform="matrix(6.18105,0,0,6.18105,63.7396,38.7022)"><stop offset="0" style="stop-color:#ffeee0;stop-opacity:1"/><stop offset="0.01" style="stop-color:#ffeee0;stop-opacity:1"/><stop offset="1" style="stop-color:#f48120;stop-opacity:1"/></radialGradient></defs></svg>
