<!-- Generated by IcoMoon.io -->
<svg version="1.1" xmlns="http://www.w3.org/2000/svg" width="1365" height="1024" viewBox="0 0 1365 1024">
<title></title>
<g id="icomoon-ignore">
</g>
<path d="M171.163 1022.512c-47.628 0-87.814-16.372-120.558-50.605-32.744-32.744-50.605-72.93-50.605-120.558v-681.674c0-47.628 16.372-87.814 50.605-120.558s72.93-49.116 120.558-49.116h1022.512c47.628 0 87.814 16.372 120.558 50.605 32.744 32.744 50.605 72.93 50.605 120.558v681.674c0 47.628-16.372 87.814-50.605 120.558-32.744 32.744-72.93 50.605-120.558 50.605h-1022.512v-1.488zM1192.186 909.395c16.372 0 29.767-5.953 40.186-16.372s16.372-25.302 16.372-40.186v-669.767l-532.837 430.14c-5.953 4.465-10.419 7.442-17.86 8.93-5.953 1.488-11.907 2.977-19.349 2.977-5.953 0-11.907-1.488-19.349-2.977-5.953-1.488-11.907-4.465-17.86-8.93l-528.372-430.14v669.767c0 16.372 5.953 29.767 16.372 40.186s25.302 16.372 40.186 16.372h1022.512zM211.349 113.116l470.326 382.512 470.326-382.512c0 0-940.651 0-940.651 0z"></path>
</svg>
