<!-- Generated by IcoMoon.io -->
<svg version="1.1" xmlns="http://www.w3.org/2000/svg" width="1024" height="1024" viewBox="0 0 1024 1024">
<title></title>
<g id="icomoon-ignore">
</g>
<path d="M960 287.372h-202.496c14.528-9.92 27.008-19.776 35.712-28.608 51.584-51.904 51.584-136.384 0-188.288-50.112-50.432-137.536-50.496-187.712 0-27.712 27.84-101.376 141.184-91.2 216.896h-4.608c10.112-75.712-63.488-189.056-91.2-216.896-50.176-50.496-137.6-50.432-187.712 0-51.584 51.904-51.584 136.384-0.064 188.288 8.768 8.832 21.248 18.688 35.776 28.608h-202.496c-35.264 0-64 28.736-64 64v160c0 17.664 14.336 32 32 32h32v384c0 35.264 28.736 64 64 64h768c35.264 0 64-28.736 64-64v-384h32c17.664 0 32-14.336 32-32v-160c0-35.264-28.736-64-64-64zM276.16 115.596c12.992-13.056 30.208-20.224 48.512-20.224 18.24 0 35.456 7.168 48.448 20.224 43.136 43.392 86.016 154.24 71.104 169.664 0 0-2.688 2.112-11.84 2.112-44.224 0-128.64-45.952-156.224-73.728-26.816-27.008-26.816-71.040 0-98.048zM480 927.372h-352v-384h352v384zM480 479.372h-416v-128h416v128zM650.88 115.596c25.984-26.048 71.040-25.984 96.96 0 26.816 27.008 26.816 71.040 0 98.048-27.584 27.776-112 73.728-156.224 73.728-9.152 0-11.84-2.048-11.904-2.112-14.848-15.424 28.032-126.272 71.168-169.664zM896 927.372h-352v-384h352v384zM960 479.372h-416v-128h416v128z"></path>
</svg>
