<!-- Generated by IcoMoon.io -->
<svg version="1.1" xmlns="http://www.w3.org/2000/svg" width="1654" height="1024" viewBox="0 0 1654 1024">
<title></title>
<g id="icomoon-ignore">
</g>
<path d="M996.116 494.434c0-31.586-3.466-56.005-8.271-80.345h-479.783v166.046h288.453c-11.815 70.577-87.355 208.423-288.453 208.423-173.292 0-314.762-136.507-314.762-305.31s141.47-305.31 314.762-305.31c99.17 0 165.022 40.251 202.437 74.516l138.004-125.952c-88.773-79.084-203.146-126.503-340.441-126.503-280.734 0-508.062 216.222-508.062 483.249s227.328 483.249 508.062 483.249c293.258 0 488.054-195.742 488.054-472.064v0zM1597.125 414.090h-144.857v-137.846h-145.487v137.846h-144.935v138.319h144.935v137.925h145.487v-137.925h144.857v-138.319z"></path>
</svg>
