<!-- Generated by IcoMoon.io -->
<svg version="1.1" xmlns="http://www.w3.org/2000/svg" width="1024" height="1024" viewBox="0 0 1024 1024">
<title></title>
<g id="icomoon-ignore">
</g>
<path d="M668.818 501.614c0 92.087-75.118 167.205-167.205 167.205s-167.205-75.118-167.205-167.205c0-92.087 75.118-167.205 167.205-167.205s167.205 75.118 167.205 167.205v0zM758.93 501.614c0-142.409-114.907-257.317-257.317-257.317s-257.243 114.907-257.243 257.317c0 142.409 114.834 257.243 257.243 257.243s257.317-114.834 257.317-257.243zM829.44 233.838c0-33.28-26.77-60.050-60.050-60.050s-60.050 26.77-60.050 60.050c0 33.28 26.77 60.050 60.050 60.050s60.050-26.77 60.050-60.050zM501.614 90.185c73.143 0 229.888-5.925 295.79 20.261 22.894 9.143 39.863 20.261 57.49 37.888 17.701 17.627 28.745 34.597 37.961 57.49 26.112 65.902 20.261 222.647 20.261 295.79s5.851 229.888-20.261 295.79c-9.216 22.894-20.261 39.863-37.961 57.563-17.627 17.627-34.597 28.745-57.49 37.888-65.902 26.112-222.647 20.261-295.79 20.261s-229.888 5.851-295.79-20.261c-22.894-9.143-39.863-20.261-57.49-37.888-17.701-17.701-28.745-34.67-37.961-57.563-26.112-65.902-20.187-222.647-20.187-295.79s-5.925-229.888 20.187-295.79c9.216-22.894 20.261-39.863 37.961-57.49 17.627-17.627 34.597-28.745 57.49-37.888 65.902-26.185 222.647-20.261 295.79-20.261zM1003.154 501.614c0-69.266 0.658-137.801-3.291-207.067-3.877-80.238-22.162-151.479-80.896-210.286-58.807-58.734-130.048-76.946-210.286-80.896-69.266-3.877-137.801-3.365-207.067-3.365s-137.801-0.512-206.994 3.365c-80.311 3.95-151.552 22.162-210.359 80.896-58.734 58.807-76.946 130.048-80.896 210.286-3.877 69.266-3.365 137.801-3.365 207.067s-0.512 137.801 3.365 206.994c3.95 80.311 22.162 151.552 80.896 210.359 58.807 58.734 130.048 77.019 210.359 80.896 69.193 3.95 137.728 3.365 206.994 3.365s137.801 0.585 207.067-3.365c80.238-3.877 151.479-22.162 210.286-80.896 58.734-58.807 77.019-130.048 80.896-210.359 3.95-69.193 3.291-137.728 3.291-206.994z">  
</path>
</svg>
