<!-- Generated by IcoMoon.io -->
<svg version="1.1" xmlns="http://www.w3.org/2000/svg" width="1024" height="1024" viewBox="0 0 1024 1024">
<title></title>
<g id="icomoon-ignore">
</g>
<path d="M384 384h177.2v90.8h2.6c24.6-44.2 85-90.8 174.8-90.8 187 0 221.6 116.4 221.6 267.8v308.2h-184.6v-273.2c0-65.2-1.4-149-96-149-96.2 0-110.8 71-110.8 144.2v278h-184.8v-576z"></path>
<path d="M64 384h192v576h-192v-576z"></path>
<path d="M256 224c0 53-43 96-96 96s-96-43-96-96 43-96 96-96 96 43 96 96z"></path>
</svg>
