<?xml version="1.0" encoding="UTF-8" standalone="no"?><!DOCTYPE svg PUBLIC "-//W3C//DTD SVG 1.1//EN" "http://www.w3.org/Graphics/SVG/1.1/DTD/svg11.dtd"><svg width="100%" height="100%" viewBox="0 0 24 33" version="1.1" xmlns="http://www.w3.org/2000/svg" xmlns:xlink="http://www.w3.org/1999/xlink" xml:space="preserve" xmlns:serif="http://www.serif.com/" style="fill-rule:evenodd;clip-rule:evenodd;stroke-linejoin:round;stroke-miterlimit:1.41421;"><path d="M12,8.04c-2.21,0 -4,1.8 -4,4c0,2.21 1.79,4 4,4c2.209,0 4,-1.79 4,-4c0,-2.2 -1.791,-4 -4,-4Zm0,10c-3.311,0 -6,-2.69 -6,-6c0,-3.31 2.689,-6 6,-6c3.31,0 6,2.69 6,6c0,3.31 -2.69,6 -6,6Z"/>
<path d="M12,2c-5.51,0 -10,4.49 -10,10c0,7.78 7.689,15.57 10,17.74c2.31,-2.17 10,-9.96 10,-17.74c0,-5.51 -4.49,-10 -10,-10Zm0,30.09c-0.23,0 -0.46,-0.08 -0.65,-0.24c-0.46,-0.4 -11.35,-9.81 -11.35,-19.85c0,-6.62 5.38,-12 12,-12c6.62,0 12,5.38 12,12c0,10.04 -10.89,19.45 -11.35,19.85c-0.191,0.16 -0.42,0.24 -0.65,0.24Z" /></svg>
