<?xml version="1.0" encoding="UTF-8" standalone="no"?><!DOCTYPE svg PUBLIC "-//W3C//DTD SVG 1.1//EN" "http://www.w3.org/Graphics/SVG/1.1/DTD/svg11.dtd"><svg width="100%" height="100%" viewBox="0 0 125 78" version="1.1" xmlns="http://www.w3.org/2000/svg" xmlns:xlink="http://www.w3.org/1999/xlink" xml:space="preserve" xmlns:serif="http://www.serif.com/" style="fill-rule:evenodd;clip-rule:evenodd;stroke-linejoin:round;stroke-miterlimit:1.41421;"><path d="M123.93,72.713c0,2.309 -1.871,4.18 -4.181,4.18l-115.068,0c-2.31,0 -4.181,-1.871 -4.181,-4.18l0,-68.031c0,-2.311 1.871,-4.182 4.181,-4.182l115.068,0c2.31,0 4.181,1.871 4.181,4.182l0,68.031Z" style="fill:#f9f9f9;fill-rule:nonzero;stroke:#dfdfdf;stroke-width:1px;"/><path d="M77.144,61.209l1.163,-0.03l1.145,-0.089l1.126,-0.141l1.108,-0.199l1.096,-0.251l1.073,-0.304l1.042,-0.354l1.029,-0.408l0.998,-0.451l0.97,-0.496l0.946,-0.541l0.911,-0.59l0.887,-0.629l0.852,-0.666l0.821,-0.71l0.784,-0.747l0.738,-0.786l0.711,-0.821l0.674,-0.85l0.63,-0.88l0.584,-0.917l0.54,-0.948l0.502,-0.969l0.452,-0.998l0.399,-1.029l0.355,-1.042l0.304,-1.073l0.252,-1.088l0.199,-1.117l0.141,-1.125l0.088,-1.147l0.031,-1.161l-0.031,-1.153l-0.088,-1.14l-0.141,-1.117l-0.199,-1.11l-0.252,-1.08l-0.304,-1.065l-0.355,-1.044l-0.399,-1.02l-0.452,-0.991l-0.502,-0.971l-0.54,-0.94l-0.584,-0.917l-0.63,-0.879l-0.674,-0.851l-0.711,-0.814l-0.738,-0.784l-0.784,-0.74l-0.821,-0.71l-0.852,-0.666l-0.887,-0.629l-0.911,-0.584l-0.946,-0.54l-0.97,-0.504l-0.998,-0.451l-1.029,-0.4l-1.042,-0.355l-1.073,-0.303l-1.096,-0.251l-1.108,-0.201l-1.126,-0.14l-1.145,-0.088l-1.163,-0.03l-1.161,0.03l-1.147,0.088l-1.124,0.14l-1.111,0.201l-1.094,0.251l-1.066,0.303l-1.05,0.355l-1.02,0.4l-0.999,0.451l-0.97,0.504l-0.94,0.54l-0.916,0.584l-0.881,0.629l-0.851,0.666l-0.813,0.71l-0.778,0.74l-0.746,0.784l-0.711,0.814l-0.665,0.851l-0.628,0.879l-0.585,0.917l-0.54,0.94l-0.497,0.971l-0.443,0.991l-0.407,1.02l-0.356,1.044l-0.296,1.065l-0.251,1.08l-0.2,1.11l-0.141,1.117l-0.089,1.14l-0.028,1.153l0.028,1.161l0.089,1.147l0.141,1.125l0.2,1.117l0.251,1.088l0.296,1.073l0.356,1.042l0.407,1.029l0.443,0.998l0.497,0.969l0.54,0.948l0.585,0.917l0.628,0.88l0.665,0.85l0.711,0.821l0.746,0.786l0.778,0.747l0.813,0.71l0.851,0.666l0.881,0.629l0.916,0.59l0.94,0.541l0.97,0.496l0.999,0.451l1.02,0.408l1.05,0.354l1.066,0.304l1.094,0.251l1.111,0.199l1.124,0.141l1.147,0.089l1.161,0.03Z" style="fill:#ec1c2e;fill-rule:nonzero;"/><path d="M47.286,61.209l1.161,-0.03l1.148,-0.089l1.124,-0.141l1.11,-0.199l1.094,-0.251l1.067,-0.304l1.05,-0.354l1.02,-0.408l1,-0.451l0.968,-0.496l0.939,-0.541l0.918,-0.59l0.88,-0.629l0.851,-0.666l0.815,-0.71l0.783,-0.747l0.741,-0.786l0.71,-0.821l0.665,-0.85l0.629,-0.88l0.584,-0.917l0.54,-0.948l0.495,-0.969l0.451,-0.998l0.401,-1.029l0.354,-1.042l0.297,-1.073l0.251,-1.088l0.199,-1.117l0.141,-1.125l0.088,-1.147l0.03,-1.161l-0.03,-1.153l-0.088,-1.14l-0.141,-1.117l-0.199,-1.11l-0.251,-1.08l-0.297,-1.065l-0.354,-1.044l-0.401,-1.02l-0.451,-0.991l-0.495,-0.971l-0.541,-0.94l-0.584,-0.917l-0.629,-0.879l-0.665,-0.851l-0.71,-0.814l-0.741,-0.784l-0.783,-0.74l-0.815,-0.71l-0.851,-0.666l-0.88,-0.629l-0.918,-0.584l-0.939,-0.54l-0.968,-0.504l-0.999,-0.451l-1.02,-0.4l-1.05,-0.355l-1.067,-0.303l-1.094,-0.251l-1.11,-0.201l-1.124,-0.14l-1.148,-0.088l-1.161,-0.03l-1.162,0.03l-1.146,0.088l-1.125,0.14l-1.109,0.201l-1.095,0.251l-1.073,0.303l-1.043,0.355l-1.028,0.4l-0.998,0.451l-0.971,0.504l-0.946,0.54l-0.91,0.584l-0.89,0.629l-0.849,0.666l-0.823,0.71l-0.775,0.74l-0.747,0.784l-0.711,0.814l-0.673,0.851l-0.63,0.879l-0.584,0.917l-0.54,0.94l-0.503,0.971l-0.451,0.991l-0.399,1.02l-0.355,1.044l-0.303,1.065l-0.253,1.08l-0.199,1.11l-0.141,1.117l-0.088,1.14l-0.029,1.153l0.029,1.161l0.088,1.147l0.142,1.125l0.198,1.117l0.253,1.088l0.303,1.073l0.355,1.042l0.399,1.029l0.451,0.998l0.503,0.969l0.54,0.948l0.584,0.917l0.63,0.88l0.674,0.85l0.71,0.821l0.747,0.786l0.775,0.747l0.822,0.71l0.85,0.666l0.889,0.629l0.91,0.59l0.946,0.541l0.971,0.496l0.998,0.451l1.029,0.408l1.042,0.354l1.073,0.304l1.095,0.251l1.109,0.199l1.125,0.141l1.146,0.089l1.162,0.03Z" style="fill:#0084c4;fill-rule:nonzero;"/><path d="M59.441,24.759l11.415,0l0,-1.258l-10.313,0l-1.102,1.258Z" style="fill:#ec1c2e;fill-rule:nonzero;"/><path d="M57.65,27.422l13.206,0l0,-1.25l-12.406,0l-0.8,1.25Z" style="fill:#ec1c2e;fill-rule:nonzero;"/><path d="M56.31,30.13l14.545,0l0,-1.258l-13.93,0l-0.615,1.258Z" style="fill:#ec1c2e;fill-rule:nonzero;"/><path d="M55.439,32.793l15.417,0l0,-1.251l-15.033,0l-0.384,1.251Z" style="fill:#ec1c2e;fill-rule:nonzero;"/><path d="M54.869,35.464l15.987,0l0,-1.258l-15.758,0l-0.229,1.258Z" style="fill:#ec1c2e;fill-rule:nonzero;"/><path d="M54.75,40.635l16.105,0l0,-1.259l-16.215,0l0.11,1.259Z" style="fill:#ec1c2e;fill-rule:nonzero;"/><path d="M55.136,43.454l15.72,0l0,-1.258l-15.95,0l0.23,1.258Z" style="fill:#ec1c2e;fill-rule:nonzero;"/><path d="M55.898,45.74l14.958,0l0,-1.258l-15.344,0l0.386,1.258Z" style="fill:#ec1c2e;fill-rule:nonzero;"/><path d="M57.036,48.521l13.82,0l0,-1.257l-14.426,0l0.606,1.257Z" style="fill:#ec1c2e;fill-rule:nonzero;"/><path d="M58.643,51.34l12.213,0l0,-1.257l-13.057,0l0.844,1.257Z" style="fill:#ec1c2e;fill-rule:nonzero;"/><path d="M60.654,54.047l10.091,0l0,-1.257l-11.193,0l1.102,1.257Z" style="fill:#ec1c2e;fill-rule:nonzero;"/><path d="M95.987,52.48l0.067,-0.2l0.11,-0.185l0.142,-0.163l0.163,-0.134l0.184,-0.103l0.2,-0.067l0.215,-0.022l0.221,0.022l0.207,0.067l0.185,0.103l0.163,0.134l0.133,0.163l0.103,0.185l0.068,0.2l-0.229,0l-0.046,-0.141l-0.08,-0.156l-0.104,-0.133l-0.126,-0.104l-0.149,-0.08l-0.17,-0.053l-0.176,-0.015l-0.178,0.015l-0.172,0.053l-0.147,0.08l-0.132,0.104l-0.105,0.133l-0.08,0.156l-0.045,0.141l-0.222,0Z" style="fill:#ec1c2e;fill-rule:nonzero;"/><path d="M96.683,52.48l0,-0.267l0.422,0l0.096,0.007l0.08,0.008l0.075,0.023l0.058,0.029l0.046,0.037l0.036,0.044l0.023,0.052l0.008,0.067l-0.193,0l-0.008,-0.037l-0.015,-0.03l-0.022,-0.03l-0.029,-0.022l-0.037,-0.015l-0.036,-0.007l-0.038,-0.007l-0.044,0l-0.23,0l0,0.148l-0.192,0Z" style="fill:#ec1c2e;fill-rule:nonzero;"/><path d="M95.973,52.672l0.015,-0.186l0,-0.006l0.222,0l-0.007,0.036l-0.017,0.156l-0.213,0Z" style="fill:#ec1c2e;fill-rule:nonzero;"/><path d="M96.683,52.672l0,-0.192l0.192,0l0,0.154l0.319,0l0.043,-0.007l0.037,-0.015l0.023,-0.015l0.022,-0.029l0.015,-0.037l0,-0.051l0.193,0l-0.008,0.066l-0.016,0.06l-0.021,0.043l-0.022,0.023l-0.777,0Z" style="fill:#ec1c2e;fill-rule:nonzero;"/><path d="M97.94,52.672l-0.014,-0.156l-0.007,-0.036l0.229,0l0,0.006l0.022,0.186l-0.23,0Z" style="fill:#ec1c2e;fill-rule:nonzero;"/><path d="M95.973,52.672l-0.007,0.036l0.022,0.222l0.067,0.208l0.11,0.177l0.141,0.163l0.164,0.125l0.183,0.097l0.201,0.058l0.214,0.023l0.221,-0.023l0.208,-0.058l0.184,-0.097l0.164,-0.125l0.132,-0.163l0.104,-0.177l0.067,-0.208l0.022,-0.222l0,-0.036l-0.23,0l0,0.036l-0.014,0.193l-0.053,0.177l-0.079,0.156l-0.106,0.133l-0.126,0.111l-0.148,0.081l-0.169,0.052l-0.178,0.015l-0.177,-0.015l-0.172,-0.052l-0.147,-0.081l-0.132,-0.111l-0.105,-0.133l-0.08,-0.156l-0.051,-0.177l-0.017,-0.193l-0.001,-0.036l-0.212,0Z" style="fill:#ec1c2e;fill-rule:nonzero;"/><path d="M96.683,52.672l0,0.458l0.192,0l0,-0.376l0.193,0l0.229,0.376l0.193,0l-0.275,-0.376l0.066,-0.009l0.067,-0.008l0.053,-0.021l0.044,-0.029l0.015,-0.015l-0.777,0Z" style="fill:#ec1c2e;fill-rule:nonzero;"/><path d="M72.268,36.758l-0.147,-0.007l-0.148,-0.015l-0.134,-0.023l-0.132,-0.013l-0.134,-0.024l-0.133,-0.022l-0.14,-0.021l-0.149,-0.022l-0.154,-0.017l-0.164,-0.014l-0.185,-0.015l-0.2,-0.008l-0.222,0l-0.244,0.008l-0.274,0.015l-0.294,0.022l-0.216,0.031l-0.2,0.043l-0.184,0.06l-0.163,0.067l-0.148,0.08l-0.133,0.09l-0.112,0.103l-0.087,0.103l-0.067,0.12l-0.044,0.125l-0.023,0.125l0,0.133l0.03,0.141l0.052,0.141l0.08,0.14l0.104,0.141l0.215,0.193l0.25,0.155l0.297,0.133l0.319,0.111l0.332,0.11l0.348,0.112l0.355,0.125l0.34,0.149l0.319,0.177l0.303,0.215l0.266,0.274l0.222,0.325l0.17,0.399l0.111,0.474l0.038,0.562l-0.038,0.666l-0.081,0.496l-0.134,0.443l-0.169,0.4l-0.216,0.354l-0.25,0.311l-0.275,0.267l-0.303,0.229l-0.325,0.2l-0.341,0.163l-0.354,0.132l-0.363,0.112l-0.363,0.081l-0.362,0.059l-0.356,0.037l-0.338,0.023l-0.334,0.008l-0.46,0l-0.413,-0.008l-0.378,-0.008l-0.347,-0.007l-0.318,-0.014l-0.281,-0.016l-0.266,-0.021l-0.238,-0.031l-0.221,-0.029l-0.208,-0.037l-0.193,-0.037l-0.191,-0.052l-0.178,-0.052l-0.178,-0.051l-0.177,-0.067l-0.185,-0.067l0.459,-2.322l0.104,0.022l0.125,0.036l0.155,0.037l0.171,0.044l0.199,0.038l0.222,0.053l0.237,0.042l0.251,0.045l0.267,0.038l0.281,0.037l0.289,0.029l0.303,0.029l0.304,0.015l0.31,0.007l0.312,0l0.317,-0.014l0.296,-0.052l0.243,-0.081l0.185,-0.118l0.148,-0.133l0.111,-0.156l0.082,-0.162l0.067,-0.163l0.043,-0.163l0.023,-0.17l-0.007,-0.149l-0.037,-0.14l-0.06,-0.118l-0.081,-0.119l-0.103,-0.103l-0.127,-0.097l-0.14,-0.089l-0.156,-0.08l-0.169,-0.082l-0.185,-0.081l-0.193,-0.073l-0.192,-0.075l-0.206,-0.082l-0.208,-0.081l-0.214,-0.089l-0.208,-0.089l-0.206,-0.096l-0.208,-0.111l-0.2,-0.118l-0.192,-0.126l-0.179,-0.141l-0.168,-0.162l-0.155,-0.17l-0.141,-0.193l-0.126,-0.207l-0.104,-0.23l-0.088,-0.243l-0.06,-0.274l-0.038,-0.296l-0.007,-0.325l0.023,-0.349l0.022,-0.214l0.029,-0.207l0.031,-0.199l0.043,-0.193l0.045,-0.186l0.051,-0.184l0.067,-0.17l0.067,-0.169l0.081,-0.157l0.081,-0.155l0.096,-0.141l0.105,-0.14l0.111,-0.133l0.118,-0.127l0.125,-0.118l0.14,-0.111l0.148,-0.103l0.156,-0.096l0.17,-0.089l0.179,-0.089l0.183,-0.074l0.2,-0.074l0.209,-0.059l0.22,-0.06l0.238,-0.051l0.244,-0.044l0.251,-0.037l0.267,-0.03l0.28,-0.022l0.296,-0.014l0.305,-0.015l0.708,0l0.356,0.006l0.319,0.009l0.295,0.014l0.259,0.015l0.238,0.015l0.213,0.022l0.185,0.015l0.171,0.022l0.148,0.022l0.14,0.014l0.118,0.023l0.105,0.015l0.096,0.015l0.088,0.014l0.081,0.008l-0.533,2.397" style="fill:#fff;fill-rule:nonzero;stroke:#fff;stroke-width:0.22px;stroke-linejoin:miter;stroke-miterlimit:4;"/><path d="M74.702,31.809l2.974,0l-0.458,2.59l1.827,0l-0.414,2.36l-1.871,-0.038l-0.984,5.897l-0.016,0.125l0,0.111l0.016,0.097l0.03,0.089l0.043,0.074l0.051,0.073l0.068,0.06l0.074,0.043l0.089,0.046l0.089,0.036l0.102,0.03l0.105,0.015l0.118,0.022l0.118,0.007l0.125,0.008l0.363,0l0.207,-0.015l0.192,-0.029l0.164,-0.038l0.125,-0.036l0.097,-0.038l0.058,-0.03l0.023,-0.006l-0.303,2.019l-0.074,0.045l-0.081,0.037l-0.082,0.037l-0.082,0.037l-0.081,0.029l-0.09,0.03l-0.087,0.028l-0.103,0.031l-0.106,0.029l-0.11,0.022l-0.125,0.022l-0.134,0.022l-0.14,0.023l-0.148,0.022l-0.17,0.023l-0.178,0.023l-0.799,0l-0.422,-0.031l-0.377,-0.043l-0.332,-0.061l-0.29,-0.082l-0.244,-0.087l-0.207,-0.111l-0.169,-0.125l-0.141,-0.142l-0.112,-0.156l-0.081,-0.17l-0.051,-0.185l-0.03,-0.206l-0.008,-0.215l0.008,-0.236l0.022,-0.245l0.037,-0.267l1.975,-11.57" style="fill:#fff;fill-rule:nonzero;stroke:#fff;stroke-width:0.22px;stroke-linejoin:miter;stroke-miterlimit:4;"/><path d="M56.622,40.79l-0.038,0.186l-0.005,0.185l0.014,0.199l0.045,0.193l0.058,0.2l0.089,0.199l0.104,0.192l0.125,0.185l0.141,0.178l0.163,0.171l0.169,0.148l0.186,0.14l0.199,0.118l0.207,0.097l0.223,0.073l0.22,0.052l0.268,0.037l0.266,0.036l0.274,0.031l0.273,0.014l0.282,0.007l0.273,0l0.29,-0.014l0.28,-0.023l0.289,-0.043l0.295,-0.053l0.296,-0.074l0.296,-0.096l0.296,-0.111l0.312,-0.132l0.302,-0.163l0.312,-0.178l-0.459,2.626l-0.171,0.089l-0.17,0.081l-0.156,0.068l-0.162,0.058l-0.163,0.058l-0.163,0.045l-0.169,0.037l-0.186,0.038l-0.191,0.023l-0.209,0.021l-0.228,0.022l-0.244,0.008l-0.267,0.014l-0.297,0l-0.325,0.009l-0.355,0l-0.258,0l-0.267,-0.016l-0.259,-0.015l-0.265,-0.029l-0.274,-0.037l-0.267,-0.045l-0.267,-0.059l-0.265,-0.059l-0.259,-0.081l-0.259,-0.082l-0.252,-0.096l-0.252,-0.11l-0.243,-0.127l-0.238,-0.133l-0.221,-0.148l-0.222,-0.163l-0.207,-0.177l-0.2,-0.192l-0.193,-0.208l-0.17,-0.222l-0.163,-0.244l-0.147,-0.251l-0.133,-0.273l-0.119,-0.29l-0.104,-0.31l-0.081,-0.326l-0.067,-0.34l-0.043,-0.37l-0.029,-0.385l0,-0.399l0.013,-0.429l0.037,-0.445l0.022,-0.154l0.022,-0.178l0.031,-0.178l0.036,-0.192l0.036,-0.2l0.053,-0.207l0.06,-0.214l0.058,-0.222l0.075,-0.23l0.08,-0.222l0.097,-0.229l0.103,-0.229l0.119,-0.23l0.126,-0.229l0.14,-0.228l0.148,-0.223l0.171,-0.214l0.176,-0.215l0.193,-0.208l0.214,-0.192l0.222,-0.193l0.245,-0.176l0.259,-0.164l0.281,-0.155l0.295,-0.133l0.319,-0.126l0.332,-0.111l0.355,-0.089l0.378,-0.073l0.399,-0.052l0.415,-0.03l0.444,-0.015l0.208,0l0.206,0.015l0.215,0.015l0.214,0.022l0.213,0.03l0.224,0.044l0.214,0.051l0.215,0.06l0.213,0.066l0.217,0.082l0.206,0.088l0.2,0.105l0.193,0.118l0.192,0.125l0.176,0.149l0.179,0.154l0.162,0.171l0.155,0.185l0.141,0.207l0.126,0.215l0.12,0.236l0.102,0.251l0.089,0.274l0.065,0.29l0.061,0.311l0.036,0.323l0.016,0.349l0,0.37l-0.023,0.392l-0.036,0.414l-0.067,0.437l-0.09,0.459l-0.117,0.651l-7.686,0l0.458,-2.057l4.609,0l0.022,-0.281l0,-0.26l-0.015,-0.243l-0.044,-0.223l-0.059,-0.199l-0.075,-0.185l-0.096,-0.163l-0.111,-0.148l-0.126,-0.133l-0.14,-0.11l-0.149,-0.089l-0.155,-0.075l-0.17,-0.059l-0.177,-0.045l-0.185,-0.02l-0.193,-0.009l-0.207,0l-0.192,0.029l-0.193,0.037l-0.177,0.06l-0.17,0.082l-0.163,0.095l-0.155,0.111l-0.141,0.126l-0.133,0.148l-0.118,0.156l-0.111,0.17l-0.104,0.185l-0.087,0.191l-0.075,0.208l-0.059,0.223l-0.053,0.229l-0.414,2.211" style="fill:#fff;fill-rule:nonzero;stroke:#fff;stroke-width:0.22px;stroke-linejoin:miter;stroke-miterlimit:4;"/><path d="M52.51,43.379l-0.422,2.361l-2.671,0l0.03,-0.222l0.028,-0.223l0.031,-0.199l0.028,-0.185l0.031,-0.156l0.022,-0.133l0.029,-0.089l0.03,-0.05l-0.14,0.161l-0.178,0.163l-0.199,0.157l-0.23,0.147l-0.243,0.141l-0.267,0.132l-0.282,0.119l-0.289,0.11l-0.303,0.097l-0.31,0.082l-0.311,0.058l-0.31,0.045l-0.311,0.022l-0.304,0.008l-0.295,-0.022l-0.289,-0.045l-0.377,-0.089l-0.333,-0.119l-0.303,-0.141l-0.266,-0.155l-0.236,-0.169l-0.202,-0.193l-0.177,-0.199l-0.148,-0.222l-0.126,-0.222l-0.103,-0.23l-0.082,-0.238l-0.066,-0.242l-0.044,-0.237l-0.031,-0.244l-0.014,-0.237l-0.008,-0.23l0.031,-0.413l0.066,-0.393l0.097,-0.379l0.139,-0.354l0.17,-0.332l0.192,-0.311l0.23,-0.288l0.245,-0.275l0.274,-0.244l0.287,-0.214l0.312,-0.199l0.326,-0.172l0.339,-0.146l0.349,-0.12l0.354,-0.087l0.362,-0.068l0.015,0l0.052,-0.006l0.082,-0.009l0.11,-0.015l0.127,-0.014l0.147,-0.015l0.164,-0.022l0.176,-0.014l0.178,-0.015l0.179,-0.023l0.184,-0.015l0.178,-0.014l0.161,-0.015l0.156,-0.007l0.141,-0.007l0.496,0l0.133,0.007l0.126,0l0.118,0.007l0.237,0l0.103,0.008l0.096,0l0.083,0.007l0.073,0l0.059,0.007l0.081,0l0.023,-0.073l0.051,-0.178l0.038,-0.208l0,-0.184l-0.015,-0.134l-0.023,-0.126l-0.037,-0.118l-0.052,-0.111l-0.059,-0.103l-0.073,-0.096l-0.074,-0.089l-0.089,-0.089l-0.097,-0.074l-0.096,-0.059l-0.112,-0.059l-0.11,-0.052l-0.117,-0.037l-0.127,-0.03l-0.126,-0.02l-0.127,-0.016l-0.301,-0.008l-0.319,0.008l-0.334,0.007l-0.339,0.021l-0.341,0.023l-0.34,0.029l-0.34,0.038l-0.333,0.037l-0.318,0.051l-0.303,0.044l-0.274,0.053l-0.258,0.059l-0.23,0.059l-0.193,0.059l-0.156,0.06l-0.109,0.066l0.76,-2.516l0.223,-0.103l0.237,-0.096l0.236,-0.082l0.251,-0.066l0.26,-0.052l0.266,-0.044l0.281,-0.037l0.288,-0.03l0.297,-0.014l0.303,-0.015l0.311,-0.008l1.005,0l0.356,0.008l0.37,0.007l0.303,0.03l0.319,0.044l0.332,0.082l0.333,0.095l0.333,0.126l0.334,0.155l0.31,0.178l0.296,0.207l0.273,0.237l0.245,0.259l0.207,0.289l0.162,0.317l0.118,0.349l0.067,0.377l0.008,0.398l-0.059,0.437l-1.102,5.556" style="fill:#fff;fill-rule:nonzero;stroke:#fff;stroke-width:0.22px;stroke-linejoin:miter;stroke-miterlimit:4;"/><path d="M49.956,40.597l-0.007,-0.059l-0.044,-0.045l-0.075,-0.036l-0.095,-0.022l-0.126,-0.015l-0.134,-0.008l-0.154,0l-0.163,0l-0.17,0.016l-0.178,0.022l-0.169,0.022l-0.171,0.03l-0.163,0.029l-0.156,0.029l-0.132,0.037l-0.119,0.038l-0.067,0.014l-0.089,0.03l-0.109,0.037l-0.12,0.051l-0.126,0.053l-0.141,0.067l-0.14,0.08l-0.14,0.083l-0.14,0.102l-0.134,0.112l-0.127,0.117l-0.109,0.135l-0.105,0.14l-0.074,0.156l-0.058,0.169l-0.038,0.177l-0.014,0.363l0.052,0.281l0.089,0.222l0.132,0.163l0.163,0.111l0.17,0.073l0.185,0.038l0.178,0.008l0.326,-0.008l0.289,-0.03l0.273,-0.052l0.244,-0.065l0.222,-0.075l0.2,-0.089l0.177,-0.103l0.155,-0.111l0.14,-0.111l0.12,-0.126l0.104,-0.119l0.087,-0.125l0.075,-0.125l0.059,-0.12l0.045,-0.117l0.036,-0.111l0.038,-0.164l0.036,-0.17l0.037,-0.178l0.038,-0.185l0.029,-0.177l0.03,-0.163l0.029,-0.155l0.029,-0.141Z" style="fill:#0084c4;fill-rule:nonzero;"/><path d="M30.182,45.74l-2.894,0l2.434,-13.932l5.031,0l0.496,8.294l3.425,-8.294l5.224,0l-2.441,13.932l-2.893,0l1.826,-10.433l-0.111,0l-4.305,10.433l-3.24,0l-0.03,-0.437l-0.067,-1.162l-0.096,-1.643l-0.11,-1.885l-0.111,-1.903l-0.096,-1.678l-0.068,-1.214l-0.029,-0.511l-0.008,0l-0.029,0l-0.03,0l-0.037,0l-0.029,0l-0.015,0l0.03,0l-1.827,10.433" style="fill:#fff;fill-rule:nonzero;stroke:#fff;stroke-width:0.22px;stroke-linejoin:miter;stroke-miterlimit:4;"/><path d="M78.514,45.74l3.011,0l1.028,-6.015l0.044,-0.237l0.052,-0.229l0.059,-0.229l0.074,-0.215l0.081,-0.214l0.104,-0.201l0.125,-0.192l0.141,-0.184l0.171,-0.164l0.191,-0.148l0.23,-0.133l0.251,-0.119l0.297,-0.096l0.332,-0.074l0.37,-0.044l0.414,-0.03l0.037,0l0.045,0.008l0.06,0.007l0.058,0l0.053,0.008l0.043,0.007l0.03,0.007l0.015,0l0.008,-0.043l0.03,-0.127l0.037,-0.193l0.058,-0.243l0.074,-0.273l0.081,-0.297l0.097,-0.296l0.111,-0.28l0.081,-0.208l0.096,-0.2l0.096,-0.199l0.104,-0.185l0.089,-0.156l0.074,-0.126l0.051,-0.082l0.016,-0.028l-0.016,0l-0.037,-0.016l-0.051,-0.007l-0.075,-0.014l-0.073,-0.015l-0.09,-0.007l-0.08,-0.015l-0.074,0l-0.326,0.022l-0.296,0.036l-0.273,0.06l-0.253,0.066l-0.236,0.088l-0.214,0.097l-0.207,0.118l-0.185,0.127l-0.186,0.141l-0.17,0.155l-0.155,0.162l-0.164,0.177l-0.154,0.185l-0.148,0.201l-0.156,0.207l-0.154,0.215l0.347,-1.901l-3.011,-0.038l-1.982,11.379" style="fill:#fff;fill-rule:nonzero;stroke:#fff;stroke-width:0.22px;stroke-linejoin:miter;stroke-miterlimit:4;"/><path d="M91.541,34.243l0.333,0.007l0.326,0.022l0.318,0.029l0.312,0.045l0.295,0.06l0.288,0.073l0.274,0.082l0.272,0.096l0.26,0.11l0.244,0.119l0.245,0.127l0.222,0.14l0.222,0.154l0.206,0.163l0.194,0.171l0.184,0.185l0.178,0.192l0.162,0.207l0.149,0.208l0.14,0.222l0.133,0.228l0.111,0.245l0.11,0.244l0.09,0.259l0.082,0.259l0.066,0.274l0.059,0.281l0.045,0.288l0.028,0.288l0.016,0.304l0.007,0.311l-0.007,0.31l-0.022,0.378l-0.045,0.363l-0.052,0.348l-0.067,0.339l-0.073,0.326l-0.097,0.31l-0.103,0.304l-0.11,0.287l-0.135,0.275l-0.131,0.266l-0.158,0.251l-0.154,0.237l-0.17,0.23l-0.186,0.214l-0.192,0.201l-0.199,0.192l-0.208,0.177l-0.214,0.171l-0.229,0.155l-0.23,0.141l-0.244,0.132l-0.253,0.12l-0.25,0.11l-0.267,0.096l-0.265,0.088l-0.282,0.075l-0.281,0.06l-0.281,0.051l-0.295,0.037l-0.296,0.029l-0.304,0.016l-0.304,0.006l-0.303,-0.006l-0.304,-0.016l-0.288,-0.029l-0.288,-0.045l-0.281,-0.052l-0.282,-0.059l-0.265,-0.074l-0.259,-0.088l-0.26,-0.096l-0.244,-0.112l-0.236,-0.117l-0.23,-0.134l-0.221,-0.139l-0.208,-0.158l-0.207,-0.162l-0.192,-0.177l-0.178,-0.185l-0.178,-0.2l-0.156,-0.207l-0.154,-0.222l-0.134,-0.229l-0.133,-0.244l-0.11,-0.252l-0.105,-0.259l-0.087,-0.274l-0.082,-0.288l-0.067,-0.295l-0.051,-0.306l-0.037,-0.316l-0.022,-0.326l-0.007,-0.34l0.007,-0.347l0.022,-0.355l0.037,-0.342l0.051,-0.333l0.067,-0.318l0.074,-0.311l0.088,-0.303l0.096,-0.289l0.112,-0.28l0.118,-0.274l0.132,-0.258l0.149,-0.246l0.156,-0.243l0.163,-0.221l0.176,-0.223l0.186,-0.201l0.193,-0.199l0.206,-0.184l0.215,-0.17l0.222,-0.163l0.23,-0.148l0.242,-0.133l0.253,-0.133l0.259,-0.111l0.259,-0.104l0.274,-0.088l0.28,-0.083l0.29,-0.065l0.295,-0.06l0.303,-0.038l0.31,-0.036l0.319,-0.015l0.318,-0.007" style="fill:#fff;fill-rule:nonzero;stroke:#fff;stroke-width:0.22px;stroke-linejoin:miter;stroke-miterlimit:4;"/><path d="M95.966,45.17l0.873,0l0,0.111l-0.341,0l0,0.724l-0.192,0l0,-0.724l-0.34,0l0,-0.111" style="fill:#fff;fill-rule:nonzero;stroke:#fff;stroke-width:0.22px;stroke-linejoin:miter;stroke-miterlimit:4;"/><path d="M96.95,45.17l0.266,0l0.311,0.644l0.303,-0.644l0.266,0l0,0.835l-0.192,0l-0.001,-0.642l-0.302,0.642l-0.155,0l-0.305,-0.642l0,0.642l-0.191,0l0,-0.835" style="fill:#fff;fill-rule:nonzero;stroke:#fff;stroke-width:0.22px;stroke-linejoin:miter;stroke-miterlimit:4;"/><path d="M89.182,39.68l-0.044,0.415l-0.024,0.384l0,0.348l0.024,0.326l0.044,0.296l0.065,0.259l0.083,0.237l0.102,0.214l0.126,0.184l0.141,0.156l0.154,0.133l0.172,0.105l0.184,0.08l0.209,0.06l0.213,0.029l0.23,0.015l0.252,-0.007l0.244,-0.029l0.229,-0.054l0.221,-0.08l0.209,-0.104l0.199,-0.133l0.184,-0.156l0.179,-0.185l0.155,-0.206l0.148,-0.238l0.14,-0.266l0.119,-0.288l0.111,-0.318l0.096,-0.347l0.075,-0.378l0.066,-0.406l0.035,-0.319l0.023,-0.303l0.001,-0.296l-0.023,-0.281l-0.037,-0.26l-0.058,-0.251l-0.082,-0.23l-0.096,-0.213l-0.118,-0.193l-0.135,-0.163l-0.154,-0.148l-0.17,-0.118l-0.193,-0.097l-0.207,-0.059l-0.222,-0.036l-0.246,0l-0.302,0.022l-0.281,0.051l-0.26,0.088l-0.243,0.112l-0.222,0.148l-0.207,0.163l-0.185,0.184l-0.164,0.209l-0.155,0.22l-0.132,0.238l-0.12,0.236l-0.096,0.251l-0.087,0.252l-0.074,0.252l-0.052,0.252l-0.044,0.243Z" style="fill:#ec1c2e;fill-rule:nonzero;"/></svg>
