<!-- Generated by IcoMoon.io -->
<svg version="1.1" xmlns="http://www.w3.org/2000/svg" width="1024" height="1024" viewBox="0 0 1024 1024">
<title></title>
<g id="icomoon-ignore">
</g>
<path d="M546.488 642.714h-58.545c-21.289 0-38.533-17.244-38.533-38.533s17.244-38.533 38.533-38.533h103.039c14.051 0 25.547-11.496 25.547-25.547s-11.496-25.547-25.547-25.547h-48.326v-35.553c0-14.051-11.496-25.547-25.547-25.547s-25.547 11.496-25.547 25.547v35.553h-3.619c-49.39 0-89.627 40.236-89.627 89.627s40.236 89.627 89.627 89.627h58.545c21.289 0 38.533 17.244 38.533 38.533s-17.244 38.533-38.533 38.533h-104.955c-14.051 0-25.547 11.496-25.547 25.547s11.496 25.547 25.547 25.547h50.242v36.404c0 14.051 11.496 25.547 25.547 25.547s25.547-11.496 25.547-25.547v-36.404h4.258c0.213 0 0.426 0 0.639 0 48.965-0.639 88.349-40.662 88.349-89.627 0-49.39-40.236-89.627-89.627-89.627z"></path>
<path d="M901.163 584.808c-26.824-61.738-63.867-121.56-110.703-177.55-56.629-68.125-113.044-113.683-141.785-134.759l108.574-201.394c5.322-10.006 3.619-22.353-4.684-30.23-28.101-27.463-57.906-40.875-91.117-40.875-30.443 0-58.332 11.496-82.601 21.715-19.16 7.877-37.256 15.541-51.945 15.541-4.471 0-8.303-0.639-12.135-2.129-50.668-18.521-89.627-30.017-127.308-30.017-47.687 0-88.349 19.16-128.16 60.035-8.303 8.516-9.58 21.928-2.98 31.933l117.089 176.911c-28.953 21.502-84.304 66.635-139.869 133.269-46.623 55.99-83.879 115.812-110.703 177.55-33.637 77.705-50.668 158.816-50.668 240.991 0 109.212 88.988 198.2 198.2 198.2h483.26c109.212 0 198.2-88.988 198.2-198.2 0-82.175-17.031-163.286-50.668-240.991zM310.819 86.433c24.695-21.289 48.326-30.656 76.64-30.656 30.23 0 64.293 10.219 109.638 27.037 9.367 3.406 19.373 5.109 29.592 5.109 24.908 0 48.752-9.793 71.531-19.373 21.928-9.154 42.791-17.883 63.015-17.883 9.793 0 23.631 1.703 41.088 14.051l-102.187 189.898h-177.976l-111.341-168.183zM753.63 972.906h-483.26c-81.111 0-147.107-65.996-147.107-147.107 0-136.462 50.029-265.899 148.384-384.692 62.164-75.15 125.392-121.773 144.552-135.398h191.175c19.373 13.412 82.388 60.248 144.552 135.398 98.568 118.793 148.384 248.017 148.384 384.692 0.426 81.111-65.57 147.107-146.681 147.107z"></path>
</svg>
