<!-- Generated by IcoMoon.io -->
<svg version="1.1" xmlns="http://www.w3.org/2000/svg" width="864" height="1024" viewBox="0 0 864 1024">
<title></title>
<g id="icomoon-ignore">
</g>
<path d="M261.333 170.582v-42.581c0-70.571 57.429-128 128-128h85.333c70.571 0 128 57.429 128 128v42.581h170.667c47.019 0 85.333 38.272 85.333 85.333v682.752c0 46.976-38.144 85.205-85.333 85.333h-682.667c-47.019 0-85.333-38.272-85.333-85.333v-682.752c0-47.061 38.315-85.333 85.333-85.333h170.667zM773.333 255.916h-170.667v42.667c0 23.552-19.072 42.667-42.667 42.667s-42.667-19.115-42.667-42.667v-42.667h-170.667v42.667c0 23.552-19.072 42.667-42.667 42.667s-42.667-19.115-42.667-42.667v-42.667h-170.667v682.752h682.539l0.128-682.752zM432 537.004l97.835-97.835c16.683-16.683 43.648-16.683 60.331 0 16.683 16.64 16.683 43.691 0 60.331l-97.835 97.835 97.835 97.835c16.683 16.64 16.683 43.648 0 60.331-8.32 8.32-19.243 12.501-30.165 12.501s-21.845-4.181-30.165-12.501l-97.835-97.835-97.835 97.835c-8.32 8.32-19.243 12.501-30.165 12.501s-21.845-4.181-30.165-12.501c-16.683-16.683-16.683-43.691 0-60.331l97.835-97.835-97.835-97.835c-16.683-16.64-16.683-43.691 0-60.331 16.683-16.683 43.648-16.683 60.331 0l97.835 97.835zM517.333 170.582v-42.581c0-23.552-19.115-42.667-42.667-42.667h-85.333c-23.552 0-42.667 19.115-42.667 42.667v42.581h170.667z"></path>
</svg>
