<!-- Generated by IcoMoon.io -->
<svg version="1.1" xmlns="http://www.w3.org/2000/svg" width="1280" height="1024" viewBox="0 0 1280 1024">
<title></title>
<g id="icomoon-ignore">
</g>
<path d="M1230.784 315.168h-1181.536c-21.76 0-39.392-17.632-39.392-39.392s17.632-39.392 39.392-39.392v0h1181.536c21.76 0 39.392 17.632 39.392 39.392s-17.632 39.392-39.392 39.392v0z"></path>
<path d="M994.464 551.488c-0.064 0-0.16 0-0.224 0-10.816 0-20.608-4.352-27.744-11.424v0c-7.2-7.136-11.648-17.024-11.648-27.968s4.448-20.832 11.648-27.968v0l208.736-208.352-208.736-208.352c-7.168-7.168-11.584-17.056-11.584-27.968 0-21.856 17.696-39.552 39.552-39.552 10.912 0 20.8 4.416 27.968 11.584l236.32 236.32c7.2 7.136 11.648 17.024 11.648 27.968s-4.448 20.832-11.648 27.968l-236.32 236.32c-7.104 7.072-16.928 11.424-27.744 11.424-0.096 0-0.16 0-0.256 0v0z"></path>
<path d="M1230.784 787.776h-1181.536c-21.76 0-39.392-17.632-39.392-39.392s17.632-39.392 39.392-39.392v0h1181.536c21.76 0 39.392 17.632 39.392 39.392s-17.632 39.392-39.392 39.392v0z"></path>
<path d="M285.536 1024.096c-0.064 0-0.16 0-0.224 0-10.816 0-20.608-4.352-27.744-11.424l-236.32-236.32c-7.2-7.136-11.648-17.024-11.648-27.968s4.448-20.832 11.648-27.968l236.32-236.32c7.168-7.168 17.056-11.584 27.968-11.584 21.856 0 39.552 17.696 39.552 39.552 0 10.912-4.416 20.8-11.584 27.968v0l-208.736 208.352 208.736 208.352c7.2 7.136 11.648 17.024 11.648 27.968s-4.448 20.832-11.648 27.968v0c-7.104 7.072-16.928 11.424-27.744 11.424-0.064 0-0.16 0-0.256 0v0z"></path>
</svg>
