<!-- Generated by IcoMoon.io -->
<svg version="1.1" xmlns="http://www.w3.org/2000/svg" width="784" height="1024" viewBox="0 0 784 1024">
<title></title>
<g id="icomoon-ignore">
</g>
<path d="M392.001 553.347c-56.032 0-101.62 45.586-101.62 101.62 0 27.79 11.55 54.66 31.714 73.782v91.75c0 38.546 31.36 69.906 69.906 69.906s69.906-31.36 69.906-69.906v-91.75c20.156-19.11 31.714-45.986 31.714-73.782 0-56.034-45.586-101.62-101.62-101.62zM427.961 693.117c-9.702 9.142-15.266 21.92-15.266 35.060v92.322c0 11.41-9.28 20.69-20.69 20.69s-20.69-9.28-20.69-20.69v-92.322c0-13.14-5.564-25.92-15.26-35.054-10.608-10.006-16.452-23.556-16.452-38.156 0-28.894 23.51-52.404 52.404-52.404s52.404 23.51 52.404 52.404c-0.006 14.6-5.85 28.15-16.45 38.15z"></path>
<path d="M689.957 419.753h-472.88v-195.608c0-96.454 78.468-174.928 174.924-174.928s174.926 78.474 174.926 174.928v88.536c0 13.59 11.020 24.608 24.608 24.608s24.608-11.016 24.608-24.608v-88.536c0-123.594-100.55-224.144-224.142-224.144s-224.142 100.55-224.142 224.144v195.608h-73.816c-40.706 0-73.822 33.118-73.822 73.822v456.602c0 40.706 33.116 73.822 73.822 73.822h595.914c40.706 0 73.822-33.116 73.822-73.822v-456.6c0.002-40.706-33.116-73.824-73.822-73.824zM714.565 950.179c0 13.568-11.038 24.608-24.608 24.608h-595.912c-13.568 0-24.608-11.038-24.608-24.608v-456.602c0-13.568 11.040-24.608 24.608-24.608h595.914c13.568 0 24.608 11.038 24.608 24.608v456.602z"></path>
</svg>
