<?xml version="1.0" encoding="UTF-8" standalone="no"?><!DOCTYPE svg PUBLIC "-//W3C//DTD SVG 1.1//EN" "http://www.w3.org/Graphics/SVG/1.1/DTD/svg11.dtd"><svg width="100%" height="100%" viewBox="0 0 125 78" version="1.1" xmlns="http://www.w3.org/2000/svg" xmlns:xlink="http://www.w3.org/1999/xlink" xml:space="preserve" xmlns:serif="http://www.serif.com/" style="fill-rule:evenodd;clip-rule:evenodd;stroke-linejoin:round;stroke-miterlimit:1.41421;"><path d="M123.93,72.712c0,2.31 -1.871,4.182 -4.18,4.182l-115.069,0c-2.309,0 -4.181,-1.872 -4.181,-4.182l0,-68.032c0,-2.31 1.872,-4.18 4.181,-4.18l115.069,0c2.309,0 4.18,1.87 4.18,4.18l0,68.032Z" style="fill:#f9f9f9;fill-rule:nonzero;stroke:#dfdfdf;stroke-width:1px;"/><path d="M82.676,42.303c-0.259,0.163 -0.533,0.303 -0.82,0.423c-0.386,0.155 -0.751,0.237 -1.088,0.237c-0.521,0 -0.919,-0.075 -1.189,-0.231c-0.27,-0.149 -0.411,-0.408 -0.406,-0.778c0,-0.427 0.099,-0.76 0.301,-1.02c0.207,-0.25 0.513,-0.452 0.892,-0.602c0.377,-0.129 0.841,-0.233 1.375,-0.308c0.478,-0.06 1.419,-0.169 1.539,-0.17c0.121,0 0.201,-0.067 0.147,0.253c-0.023,0.139 -0.296,1.256 -0.421,1.762c-0.036,0.153 -0.238,0.375 -0.33,0.434m3.695,-7.842c-0.794,-0.442 -2.033,-0.666 -3.731,-0.666c-0.839,0 -1.681,0.067 -2.528,0.199c-0.622,0.094 -0.685,0.11 -1.071,0.193c-0.794,0.174 -0.917,0.969 -0.917,0.969l-0.254,1.049c-0.145,0.67 0.237,0.642 0.406,0.591c0.347,-0.105 0.535,-0.21 1.243,-0.37c0.676,-0.152 1.389,-0.268 1.959,-0.263c0.836,0 1.471,0.092 1.894,0.268c0.422,0.185 0.632,0.498 0.632,0.947c0.002,0.107 0.004,0.207 -0.034,0.296c-0.035,0.082 -0.102,0.162 -0.303,0.189c-1.191,0.07 -2.047,0.179 -3.079,0.33c-1.016,0.143 -1.906,0.388 -2.65,0.728c-0.793,0.351 -1.387,0.822 -1.796,1.419c-0.398,0.599 -0.598,1.325 -0.6,2.18c0,0.808 0.29,1.468 0.852,1.979c0.57,0.505 1.309,0.755 2.203,0.755c0.559,-0.004 0.997,-0.045 1.31,-0.123c0.31,-0.078 0.649,-0.189 1.006,-0.344c0.267,-0.112 0.556,-0.273 0.86,-0.476c0.305,-0.203 0.516,-0.348 0.787,-0.526l0.01,0.017l-0.077,0.337c-0.001,0.003 -0.004,0.005 -0.004,0.007l0.002,0.007c-0.088,0.405 0.157,0.741 0.557,0.783l0.006,0.006l0.034,0l0.003,0.002c0.266,0 1.179,0 1.606,-0.002l0.297,0c0.02,0 0.023,-0.006 0.031,-0.012c0.408,-0.049 0.801,-0.383 0.894,-0.784l1.525,-6.58c0.034,-0.155 0.062,-0.333 0.078,-0.54c0.019,-0.208 0.042,-0.378 0.036,-0.503c0.003,-0.93 -0.397,-1.619 -1.187,-2.062" style="fill:#369;fill-rule:nonzero;"/><path d="M60.137,33.94c-0.445,0 -1.033,0.362 -1.311,0.799c0,0 -2.992,5.131 -3.285,5.642c-0.16,0.277 -0.322,0.102 -0.351,-0.001c-0.02,-0.125 -0.924,-5.607 -0.924,-5.607c-0.103,-0.44 -0.565,-0.819 -1.141,-0.817l-1.864,0.003c-0.452,0 -0.733,0.359 -0.632,0.795c0,0 1.426,8.084 1.704,9.984c0.139,1.051 -0.014,1.239 -0.014,1.239l-1.849,3.224c-0.271,0.435 -0.123,0.795 0.326,0.795l2.161,-0.002c0.448,0 1.04,-0.356 1.309,-0.794l8.316,-14.069c0,0 0.796,-1.201 0.062,-1.191c-0.5,0.008 -2.507,0 -2.507,0" style="fill:#036;fill-rule:nonzero;"/><path d="M38.389,32.625c-0.26,-0.506 -0.648,-0.917 -1.146,-1.227c-0.514,-0.319 -1.114,-0.537 -1.812,-0.67c-0.703,-0.125 -1.523,-0.186 -2.465,-0.196l-4.358,0.004c-0.454,0.006 -0.896,0.36 -1.002,0.795l-2.939,12.778c-0.101,0.437 0.181,0.798 0.633,0.798l2.09,0c0.449,0 0.898,-0.352 0.998,-0.798l0.72,-3.101c0.096,-0.434 0.543,-0.793 0.995,-0.793l0.597,0c2.554,-0.003 4.535,-0.525 5.958,-1.57c1.421,-1.043 2.132,-2.426 2.129,-4.138c0.003,-0.752 -0.127,-1.38 -0.398,-1.882m-4.509,4.175c-0.631,0.46 -1.502,0.692 -2.635,0.692l-0.512,0c-0.451,0 -0.737,-0.359 -0.636,-0.798l0.629,-2.709c0.095,-0.436 0.544,-0.798 0.996,-0.794l0.684,-0.004c0.798,0 1.404,0.136 1.815,0.408c0.402,0.264 0.608,0.681 0.599,1.243c0.012,0.846 -0.308,1.5 -0.94,1.962" style="fill:#036;fill-rule:nonzero;"/><path d="M76.297,32.671c-0.261,-0.505 -0.653,-0.914 -1.149,-1.23c-0.51,-0.318 -1.115,-0.539 -1.816,-0.667c-0.692,-0.122 -1.518,-0.192 -2.456,-0.193l-4.369,0.001c-0.45,0.008 -0.89,0.362 -0.995,0.797l-2.936,12.78c-0.107,0.435 0.184,0.798 0.626,0.795l2.096,-0.003c0.444,0.003 0.897,-0.357 1.003,-0.792l0.708,-3.1c0.099,-0.435 0.552,-0.8 1.003,-0.793l0.596,0c2.557,0 4.54,-0.525 5.96,-1.572c1.416,-1.051 2.127,-2.428 2.127,-4.143c-0.004,-0.748 -0.131,-1.379 -0.398,-1.88m-4.506,4.181c-0.626,0.455 -1.504,0.684 -2.634,0.684l-0.519,0c-0.45,0.004 -0.739,-0.359 -0.634,-0.795l0.627,-2.712c0.093,-0.43 0.549,-0.795 0.993,-0.791l0.685,-0.004c0.802,0.004 1.402,0.139 1.816,0.404c0.406,0.271 0.603,0.689 0.606,1.246c0.002,0.849 -0.312,1.502 -0.94,1.968" style="fill:#369;fill-rule:nonzero;"/><path d="M44.759,42.294c-0.259,0.164 -0.533,0.303 -0.821,0.422c-0.384,0.155 -0.752,0.236 -1.089,0.236c-0.517,0 -0.918,-0.073 -1.188,-0.229c-0.269,-0.149 -0.411,-0.408 -0.407,-0.779c0,-0.428 0.1,-0.759 0.305,-1.02c0.205,-0.251 0.509,-0.452 0.888,-0.602c0.378,-0.129 0.843,-0.232 1.378,-0.308c0.476,-0.061 1.417,-0.168 1.538,-0.17c0.12,0 0.2,-0.067 0.147,0.253c-0.024,0.14 -0.295,1.257 -0.421,1.763c-0.037,0.154 -0.239,0.374 -0.33,0.434m3.693,-7.843c-0.793,-0.442 -2.032,-0.666 -3.729,-0.666c-0.839,0 -1.682,0.067 -2.529,0.198c-0.622,0.096 -0.684,0.112 -1.071,0.195c-0.794,0.174 -0.916,0.969 -0.916,0.969l-0.255,1.047c-0.146,0.672 0.239,0.644 0.409,0.591c0.345,-0.104 0.534,-0.206 1.24,-0.367c0.675,-0.155 1.389,-0.269 1.96,-0.265c0.835,0 1.47,0.091 1.893,0.267c0.423,0.186 0.631,0.5 0.631,0.949c0.003,0.106 0.006,0.208 -0.033,0.294c-0.035,0.084 -0.102,0.163 -0.302,0.189c-1.192,0.072 -2.046,0.181 -3.08,0.331c-1.017,0.143 -1.906,0.388 -2.65,0.728c-0.794,0.353 -1.386,0.823 -1.795,1.42c-0.4,0.599 -0.599,1.325 -0.599,2.179c0,0.809 0.29,1.467 0.851,1.979c0.569,0.505 1.309,0.755 2.202,0.755c0.56,-0.004 0.996,-0.045 1.311,-0.123c0.31,-0.078 0.648,-0.189 1.005,-0.344c0.268,-0.112 0.556,-0.274 0.861,-0.476c0.304,-0.203 0.517,-0.347 0.787,-0.525l0.009,0.017l-0.077,0.335c0,0.004 -0.003,0.006 -0.003,0.01l0.002,0.006c-0.087,0.405 0.156,0.741 0.557,0.78l0.004,0.008l0.036,0l0.001,0.004c0.267,0 1.18,-0.002 1.607,-0.004l0.298,0c0.021,0 0.023,-0.007 0.03,-0.012c0.409,-0.051 0.801,-0.382 0.894,-0.782l1.525,-6.583c0.034,-0.153 0.063,-0.332 0.078,-0.539c0.02,-0.208 0.043,-0.379 0.036,-0.501c0.004,-0.932 -0.397,-1.621 -1.188,-2.064" style="fill:#036;fill-rule:nonzero;"/><path d="M93.57,30.686l-1.869,0c-0.001,0 -0.001,0 -0.002,0l-0.002,0c-0.419,0 -0.838,0.318 -0.969,0.725c-0.008,0.024 -0.025,0.045 -0.032,0.07c0,0 -0.037,0.173 -0.103,0.469l-2.578,11.693c-0.063,0.276 -0.105,0.458 -0.117,0.503l0.005,0.008c-0.086,0.403 0.156,0.729 0.551,0.771l0.012,0.017l1.938,0c0.422,0 0.844,-0.324 0.972,-0.73c0.007,-0.023 0.024,-0.042 0.029,-0.066l2.8,-12.666l-0.004,-0.002c0.094,-0.432 -0.184,-0.792 -0.631,-0.792" style="fill:#369;fill-rule:nonzero;"/><path d="M96.404,33.264c-0.064,0.017 -0.133,0.031 -0.208,0.041c-0.077,0.012 -0.145,0.018 -0.203,0.018c-0.209,0 -0.367,-0.057 -0.474,-0.167c-0.107,-0.112 -0.161,-0.291 -0.161,-0.537l0,-1.081l-0.232,0l0,-0.288l0.232,0l0,-0.583l0.341,0l0,0.583l0.705,0l0,0.288l-0.705,0l0,0.926c0,0.107 0.004,0.19 0.007,0.249c0.006,0.062 0.022,0.117 0.051,0.17c0.026,0.048 0.063,0.083 0.11,0.106c0.047,0.022 0.119,0.034 0.214,0.034c0.056,0 0.115,-0.009 0.175,-0.026c0.06,-0.015 0.105,-0.029 0.131,-0.041l0.017,0l0,0.308Z" style="fill:#369;fill-rule:nonzero;"/><path d="M99.786,33.283l-0.344,0l0,-1.158c0,-0.086 -0.003,-0.171 -0.011,-0.253c-0.008,-0.081 -0.025,-0.145 -0.052,-0.194c-0.027,-0.052 -0.066,-0.092 -0.119,-0.118c-0.053,-0.027 -0.127,-0.041 -0.225,-0.041c-0.096,0 -0.191,0.024 -0.287,0.074c-0.096,0.046 -0.191,0.107 -0.287,0.181c0.003,0.028 0.005,0.06 0.007,0.098c0.003,0.036 0.005,0.073 0.005,0.109l0,1.302l-0.341,0l0,-1.158c0,-0.089 -0.006,-0.175 -0.013,-0.255c-0.008,-0.081 -0.025,-0.145 -0.05,-0.193c-0.029,-0.053 -0.068,-0.092 -0.121,-0.119c-0.052,-0.025 -0.126,-0.039 -0.225,-0.039c-0.094,0 -0.188,0.023 -0.282,0.071c-0.094,0.045 -0.187,0.103 -0.282,0.174l0,1.519l-0.342,0l0,-2.033l0.342,0l0,0.225c0.107,-0.087 0.214,-0.157 0.321,-0.206c0.105,-0.05 0.218,-0.075 0.34,-0.075c0.136,0 0.255,0.028 0.35,0.087c0.096,0.058 0.168,0.139 0.218,0.243c0.135,-0.117 0.263,-0.201 0.376,-0.253c0.115,-0.051 0.237,-0.077 0.365,-0.077c0.224,0 0.389,0.068 0.496,0.203c0.105,0.136 0.16,0.325 0.16,0.566l0.001,1.32Z" style="fill:#369;fill-rule:nonzero;"/></svg>
