<!-- Generated by IcoMoon.io -->
<svg version="1.1" xmlns="http://www.w3.org/2000/svg" width="28" height="32" viewBox="0 0 28 32">
<title>pintrest</title>
<path d="M0 11.371c0 2.496 1.041 6.133 3.902 6.953 0.1 0.019 0.241 0.058 0.341 0.058 0.661 0 1.041-1.754 1.041-2.249 0-0.591-1.581-1.847-1.581-4.305 0-5.105 4.085-8.725 9.374-8.725 4.546 0 7.91 2.458 7.91 6.974 0 3.371-1.423 9.696-6.029 9.696-1.662 0-3.085-1.143-3.085-2.782 0-2.4 1.762-4.723 1.762-7.2 0-1.506-0.9-2.724-2.583-2.724-2.283 0-3.684 2.438-3.684 4.363 0 1.067 0.139 2.246 0.64 3.219-0.922 3.772-2.803 9.389-2.803 13.274 0 1.201 0.179 2.381 0.301 3.582l0.179 0.19 0.279-0.096c3.366-4.38 3.245-5.237 4.768-10.97 0.821 1.485 2.944 2.285 4.627 2.285 7.089 0 10.272-6.571 10.272-12.495 0-6.304-5.726-10.417-12.015-10.417-6.85 0-13.617 4.341-13.617 11.371z"></path>
</svg>
