<!-- Generated by IcoMoon.io -->
<svg version="1.1" xmlns="http://www.w3.org/2000/svg" width="864" height="1024" viewBox="0 0 864 1024">
<title></title>
<g id="icomoon-ignore">
</g>
<path d="M261.333 170.582v-42.581c0-70.571 57.429-128 128-128h85.333c70.571 0 128 57.429 128 128v42.581h170.667c47.019 0 85.333 38.272 85.333 85.333v682.752c0 47.019-38.229 85.291-85.333 85.333h-682.667c-47.019 0-85.333-38.272-85.333-85.333v-682.752c0-47.061 38.315-85.333 85.333-85.333h170.667zM773.333 255.916h-170.667v42.667c0 23.552-19.072 42.667-42.667 42.667s-42.667-19.115-42.667-42.667v-42.667h-170.667v42.667c0 23.552-19.072 42.667-42.667 42.667s-42.667-19.115-42.667-42.667v-42.667h-170.667v682.752h682.539l0.128-682.752zM389.589 642.134c-2.901-5.675-4.48-12.117-4.48-18.944v-198.656c-0.043-23.552 19.072-42.667 42.667-42.667 23.552 0 42.667 19.072 42.624 42.667l0.043 183.339 159.915 159.915c16.683 16.64 16.683 43.691 0 60.331-8.32 8.32-19.243 12.501-30.165 12.501s-21.803-4.181-30.165-12.501l-170.667-170.667c-4.48-4.48-7.765-9.685-9.771-15.317zM517.333 170.582v-42.581c0-23.552-19.115-42.667-42.667-42.667h-85.333c-23.552 0-42.667 19.115-42.667 42.667v42.581h170.667z"></path>
</svg>
