<!-- Generated by IcoMoon.io -->
<svg version="1.1" xmlns="http://www.w3.org/2000/svg" width="1056" height="1024" viewBox="0 0 1056 1024">
<title></title>
<g id="icomoon-ignore">
</g>
<path d="M525.344 1024c-0.064 0-0.16 0-0.256 0-10.944 0-20-8-21.632-18.496l-0.032-0.128c-0.16-0.992-0.256-2.144-0.256-3.296 0-10.944 8.032-20 18.528-21.632h0.128l470.4-73.344c7.904-2.88 13.632-9.984 14.432-18.528v-839.136c0.096-0.448 0.16-0.928 0.16-1.44 0-1.664-0.64-3.136-1.696-4.256v0c-0.736-0.352-1.6-0.576-2.528-0.576s-1.792 0.192-2.56 0.576h0.032l-471.072 82.304c-1.12 0.192-2.4 0.32-3.712 0.32-12.256 0-22.208-9.952-22.208-22.208 0-10.944 7.936-20.032 18.336-21.856l0.128-0.032 470.624-81.216c3.104-0.704 6.656-1.12 10.304-1.12 11.552 0 22.176 4.064 30.496 10.816l-0.096-0.064c10.88 9.088 17.728 22.656 17.728 37.856 0 0.32 0 0.64 0 0.928v-0.032 839.040c-1.024 30.016-22.048 54.848-50.112 61.632l-0.448 0.096-471.52 73.344z"></path>
<path d="M525.344 1024c-12.096 0-21.888-9.792-21.888-21.888v0-897.472c0-12.096 9.792-21.888 21.888-21.888s21.888 9.792 21.888 21.888v0 897.472c0 12.096-9.792 21.888-21.888 21.888v0z"></path>
<path d="M656.704 783.2c-0.64 0.064-1.408 0.096-2.176 0.096-12.16 0-21.984-9.856-21.984-21.984 0-11.392 8.64-20.736 19.712-21.888h0.096l218.912-43.776c1.312-0.288 2.816-0.448 4.384-0.448 10.528 0 19.328 7.456 21.408 17.376l0.032 0.128c0.288 1.312 0.448 2.816 0.448 4.384 0 10.528-7.456 19.328-17.376 21.408l-0.128 0.032-218.912 43.776z"></path>
<path d="M656.704 323.52c-0.64 0.064-1.408 0.096-2.176 0.096-12.16 0-21.984-9.856-21.984-21.984 0-11.392 8.64-20.736 19.712-21.888h0.096l218.912-43.776c1.312-0.288 2.816-0.448 4.384-0.448 12.32 0 22.336 9.984 22.336 22.336 0 10.784-7.648 19.776-17.792 21.856l-219.072 43.808z"></path>
<path d="M656.704 564.32c-0.64 0.064-1.408 0.096-2.176 0.096-12.16 0-21.984-9.856-21.984-21.984 0-11.392 8.64-20.736 19.712-21.888h0.096l218.912-43.776c1.312-0.288 2.816-0.448 4.384-0.448 10.528 0 19.328 7.456 21.408 17.376l0.032 0.128c0.288 1.312 0.448 2.816 0.448 4.384 0 10.528-7.456 19.328-17.376 21.408l-0.128 0.032-218.912 43.776z"></path>
<path d="M525.344 1024h-3.296l-470.624-73.536c-28.96-6.56-50.4-31.616-51.424-61.824v-839.136c0-0.256 0-0.576 0-0.896 0-15.168 6.88-28.768 17.664-37.792l0.064-0.064c8.416-6.688 19.2-10.752 30.912-10.752 3.712 0 7.296 0.416 10.784 1.152l-0.32-0.064 469.984 81.856c10.56 1.856 18.496 10.944 18.496 21.888 0 12.256-9.952 22.208-22.208 22.208-1.312 0-2.592-0.128-3.84-0.32l0.128 0.032-470.624-82.976c-0.8-0.416-1.728-0.64-2.72-0.64s-1.952 0.224-2.784 0.672h0.032c-1.152 1.12-1.888 2.688-1.888 4.416 0 0.448 0.064 0.896 0.128 1.312v-0.032 839.040c0.864 8.896 6.976 16.192 15.168 18.784l0.16 0.032 469.536 73.12c10.72 1.536 18.848 10.656 18.848 21.664 0 1.152-0.096 2.304-0.256 3.392v-0.128c-1.664 10.592-10.72 18.592-21.632 18.592-0.096 0-0.16 0-0.256 0v0z"></path>
<path d="M394.016 783.2h-4.384l-218.912-43.776c-10.304-1.888-18.016-10.816-18.016-21.536 0-1.664 0.192-3.296 0.544-4.864l-0.032 0.16c2.080-10.112 10.88-17.6 21.472-17.6 1.696 0 3.36 0.192 4.96 0.576l218.752 43.744c11.168 1.152 19.808 10.496 19.808 21.888 0 12.16-9.856 21.984-21.984 21.984-0.768 0-1.536-0.032-2.272-0.128h0.096z"></path>
<path d="M394.016 323.52h-4.384l-218.912-43.776c-10.304-2.112-17.952-11.104-17.952-21.888 0-12.32 9.984-22.336 22.336-22.336 1.536 0 3.072 0.16 4.512 0.448l218.752 43.744c11.168 1.152 19.808 10.496 19.808 21.888 0 12.16-9.856 21.984-21.984 21.984-0.768 0-1.536-0.032-2.272-0.128h0.096z"></path>
<path d="M394.016 564.32h-4.384l-218.912-43.776c-10.304-1.888-18.016-10.816-18.016-21.536 0-1.664 0.192-3.296 0.544-4.864l-0.032 0.16c2.080-10.112 10.88-17.6 21.472-17.6 1.696 0 3.36 0.192 4.96 0.576l218.752 43.744c11.168 1.152 19.808 10.496 19.808 21.888 0 12.16-9.856 21.984-21.984 21.984-0.768 0-1.536-0.032-2.272-0.128h0.096z"></path>
</svg>
