<!-- Generated by IcoMoon.io -->
<svg version="1.1" xmlns="http://www.w3.org/2000/svg" width="1024" height="1024" viewBox="0 0 1024 1024">
<title></title>
<g id="icomoon-ignore">
</g>
<path d="M512 1024c-281.6 0-512-230.4-512-512s230.4-512 512-512 512 230.4 512 512-230.4 512-512 512zM512 73.6c-243.2 0-438.4 195.2-438.4 438.4s198.4 438.4 438.4 438.4c243.2 0 438.4-198.4 438.4-438.4 0-243.2-195.2-438.4-438.4-438.4z"></path>
<path d="M512 739.2c-124.8 0-227.2-102.4-227.2-227.2s99.2-230.4 227.2-230.4 227.2 102.4 227.2 227.2-102.4 230.4-227.2 230.4zM512 355.2c-86.4 0-156.8 70.4-156.8 156.8s70.4 156.8 156.8 156.8c86.4 0 156.8-70.4 156.8-156.8s-70.4-156.8-156.8-156.8z"></path>
</svg>
