<!-- Generated by IcoMoon.io -->
<svg version="1.1" xmlns="http://www.w3.org/2000/svg" width="1024" height="1024" viewBox="0 0 1024 1024">
<title></title>
<g id="icomoon-ignore">
</g>
<path d="M512 682.656c-188.512 0-341.344-152.832-341.344-341.344s152.832-341.344 341.344-341.344c188.512 0 341.344 152.832 341.344 341.344v0c0 188.512-152.832 341.344-341.344 341.344v0zM512 42.656c-164.96 0-298.656 133.728-298.656 298.656s133.728 298.656 298.656 298.656c164.96 0 298.656-133.728 298.656-298.656v0c0-164.96-133.728-298.656-298.656-298.656v0z"></path>
<path d="M719.36 1024c-0.032 0-0.064 0-0.096 0-7.84 0-14.72-4.256-18.432-10.56l-0.064-0.096-188.8-327.456c-2.080-3.232-3.328-7.2-3.328-11.456 0-11.776 9.536-21.344 21.344-21.344 8.16 0 15.264 4.576 18.848 11.328l0.064 0.128 168.736 292.256 74.016-155.296c3.52-7.2 10.816-12.064 19.2-12.064 0.736 0 1.472 0.032 2.208 0.128h-0.096l149.344 16.64-176.416-299.936c-2.56-3.456-4.096-7.84-4.096-12.544 0-11.776 9.536-21.344 21.344-21.344 8.608 0 16 5.088 19.392 12.416l0.064 0.128 198.4 336.64c1.792 3.072 2.848 6.752 2.848 10.656s-1.056 7.616-2.912 10.752l0.064-0.096c-3.84 5.952-10.464 9.856-17.984 9.856-1.184 0-2.336-0.096-3.456-0.288l0.128 0.032-176.864-19.616-85.344 178.336c-3.36 6.976-10.272 11.808-18.304 12.16h-0.032z"></path>
<path d="M304.64 1024h-1.696c-8.48-0.704-15.52-6.304-18.304-13.92l-0.032-0.16-64-176.416-197.12 19.84c-0.608 0.064-1.312 0.096-2.048 0.096-7.552 0-14.176-3.904-17.952-9.824l-0.064-0.096c-1.792-3.072-2.848-6.752-2.848-10.656s1.056-7.616 2.912-10.752l-0.064 0.096 198.4-336.416c3.936-5.344 10.176-8.8 17.248-8.8 11.776 0 21.344 9.536 21.344 21.344 0 3.2-0.704 6.208-1.952 8.928l0.064-0.128-177.504 299.52 170.656-17.28c0.384-0.032 0.8-0.032 1.248-0.032 9.184 0 17.024 5.824 20.032 13.984l0.064 0.16 54.4 149.344 166.176-288c3.776-6.4 10.624-10.592 18.432-10.592 3.968 0 7.712 1.088 10.88 2.976l-0.096-0.064c6.88 3.648 11.488 10.752 11.488 18.912 0 3.52-0.864 6.848-2.368 9.792l0.064-0.128-188.8 327.68c-3.744 6.432-10.624 10.656-18.464 10.656-0.032 0-0.064 0-0.096 0v0z"></path>
</svg>
