<!-- Generated by IcoMoon.io -->
<svg version="1.1" xmlns="http://www.w3.org/2000/svg" width="1120" height="1024" viewBox="0 0 1120 1024">
<title></title>
<g id="icomoon-ignore">
</g>
<path d="M116.256 837.056c-9.408-0.064-17.504-5.728-21.088-13.792l-0.064-0.16c-1.28-2.816-2.048-6.080-2.048-9.536 0-6.016 2.272-11.488 6.016-15.616l-0.032 0.032c34.752-43.36 57.792-97.472 63.616-156.64l0.096-1.216c-105.088-66.72-162.752-165.536-162.752-279.008 0-198.336 198.112-361.088 441.792-361.088s441.792 162.752 441.792 360.384-198.112 360.384-441.792 360.384h-81.856c-60.544 67.68-146.56 111.488-242.848 116.224l-0.8 0.032zM441.792 46.496c-217.856 0-395.264 140.896-395.264 313.888 0 101.6 54.176 189.28 152.288 247.168 6.912 4.128 11.456 11.552 11.456 20.032 0 0.544-0.032 1.12-0.064 1.664v-0.064c-3.456 57.408-19.776 110.336-46.048 156.896l0.928-1.824c67.104-14.688 124.096-50.784 164.896-100.64l0.416-0.512c4.288-5.408 10.88-8.832 18.24-8.832 0.032 0 0.096 0 0.128 0h92.992c217.856 0 395.264-140.896 395.264-313.888s-177.408-313.888-395.264-313.888z"></path>
<path d="M999.808 1023.072v0c-97.024-4.832-182.944-48.64-243.136-115.936l-0.288-0.32h-82.080c-1.536 0.032-3.328 0.032-5.152 0.032-96.96 0-187.52-27.36-264.416-74.752l2.176 1.248c-6.592-4.192-10.88-11.424-10.88-19.68 0-4.512 1.28-8.704 3.488-12.256l-0.064 0.096c4.16-6.688 11.456-11.040 19.776-11.040 4.448 0 8.64 1.248 12.16 3.424l-0.096-0.064c67.872 41.792 150.112 66.528 238.112 66.528 1.696 0 3.424 0 5.12-0.032h92.736c0.032 0 0.096 0 0.128 0 7.36 0 13.952 3.424 18.208 8.8l0.032 0.032c41.216 50.368 98.24 86.464 163.392 100.8l1.92 0.352c-25.024-44.8-41.024-97.76-44.128-154.144l-0.032-0.928c-0.032-0.48-0.064-1.024-0.064-1.6 0-8.48 4.544-15.904 11.328-19.968l0.096-0.064c97.184-57.888 151.36-145.568 151.36-247.168 0-56.736-43.936-139.52-109.504-204.384-4.224-4.224-6.848-10.048-6.848-16.512 0-12.896 10.464-23.36 23.36-23.36 6.432 0 12.288 2.624 16.512 6.848v0c74.624 74.88 123.008 168.096 123.008 237.408 0 114.176-57.664 212.992-162.752 279.008 5.728 60.736 28.8 115.2 64.16 159.392l-0.448-0.608c3.712 4.096 5.984 9.568 5.984 15.584 0 3.456-0.736 6.72-2.112 9.664l0.064-0.16c-3.712 8.128-11.776 13.696-21.152 13.728v0z"></path>
</svg>
