<!-- Generated by IcoMoon.io -->
<svg version="1.1" xmlns="http://www.w3.org/2000/svg" width="1024" height="1024" viewBox="0 0 1024 1024">
<title></title>
<g id="icomoon-ignore">
</g>
<path d="M960 1024h-896c-35.36 0-64-28.64-64-64v0-896c0-35.36 28.64-64 64-64v0h896c35.36 0 64 28.64 64 64v0 896c0 35.36-28.64 64-64 64v0zM64 42.656c-11.776 0-21.344 9.536-21.344 21.344v0 896c0 11.776 9.536 21.344 21.344 21.344v0h896c11.776 0 21.344-9.536 21.344-21.344v0-896c0-11.776-9.536-21.344-21.344-21.344v0z"></path>
<path d="M661.344 106.656h42.656c11.776 0 21.344 9.536 21.344 21.344v85.344c0 11.776-9.536 21.344-21.344 21.344h-42.656c-11.776 0-21.344-9.536-21.344-21.344v-85.344c0-11.776 9.536-21.344 21.344-21.344z"></path>
<path d="M832 106.656h42.656c11.776 0 21.344 9.536 21.344 21.344v85.344c0 11.776-9.536 21.344-21.344 21.344h-42.656c-11.776 0-21.344-9.536-21.344-21.344v-85.344c0-11.776 9.536-21.344 21.344-21.344z"></path>
<path d="M490.656 106.656h42.656c11.776 0 21.344 9.536 21.344 21.344v85.344c0 11.776-9.536 21.344-21.344 21.344h-42.656c-11.776 0-21.344-9.536-21.344-21.344v-85.344c0-11.776 9.536-21.344 21.344-21.344z"></path>
<path d="M320 106.656h42.656c11.776 0 21.344 9.536 21.344 21.344v85.344c0 11.776-9.536 21.344-21.344 21.344h-42.656c-11.776 0-21.344-9.536-21.344-21.344v-85.344c0-11.776 9.536-21.344 21.344-21.344z"></path>
<path d="M149.344 106.656h42.656c11.776 0 21.344 9.536 21.344 21.344v85.344c0 11.776-9.536 21.344-21.344 21.344h-42.656c-11.776 0-21.344-9.536-21.344-21.344v-85.344c0-11.776 9.536-21.344 21.344-21.344z"></path>
<path d="M661.344 789.344h42.656c11.776 0 21.344 9.536 21.344 21.344v85.344c0 11.776-9.536 21.344-21.344 21.344h-42.656c-11.776 0-21.344-9.536-21.344-21.344v-85.344c0-11.776 9.536-21.344 21.344-21.344z"></path>
<path d="M832 789.344h42.656c11.776 0 21.344 9.536 21.344 21.344v85.344c0 11.776-9.536 21.344-21.344 21.344h-42.656c-11.776 0-21.344-9.536-21.344-21.344v-85.344c0-11.776 9.536-21.344 21.344-21.344z"></path>
<path d="M490.656 789.344h42.656c11.776 0 21.344 9.536 21.344 21.344v85.344c0 11.776-9.536 21.344-21.344 21.344h-42.656c-11.776 0-21.344-9.536-21.344-21.344v-85.344c0-11.776 9.536-21.344 21.344-21.344z"></path>
<path d="M320 789.344h42.656c11.776 0 21.344 9.536 21.344 21.344v85.344c0 11.776-9.536 21.344-21.344 21.344h-42.656c-11.776 0-21.344-9.536-21.344-21.344v-85.344c0-11.776 9.536-21.344 21.344-21.344z"></path>
<path d="M149.344 789.344h42.656c11.776 0 21.344 9.536 21.344 21.344v85.344c0 11.776-9.536 21.344-21.344 21.344h-42.656c-11.776 0-21.344-9.536-21.344-21.344v-85.344c0-11.776 9.536-21.344 21.344-21.344z"></path>
<path d="M405.344 661.344c-0.032 0-0.032 0-0.064 0-4.16 0-8.032-1.184-11.328-3.264l0.096 0.064c-6.048-3.84-10.016-10.496-10.016-18.080 0 0 0-0.032 0-0.032v0-256c0.032-11.744 9.568-21.28 21.344-21.28 3.488 0 6.816 0.832 9.728 2.336l255.872 127.936c6.944 3.616 11.616 10.752 11.616 18.976s-4.672 15.36-11.488 18.944l-256.128 128.064c-2.784 1.472-6.080 2.336-9.6 2.336v0zM426.656 418.56v186.88l186.88-93.44z"></path>
</svg>
