<!-- Generated by IcoMoon.io -->
<svg version="1.1" xmlns="http://www.w3.org/2000/svg" width="41" height="32" viewBox="0 0 41 32">
<title>quickview</title>
<path d="M20.267 30.4c-3.298 0-6.208-0.587-8.727-1.762-2.522-1.173-4.638-2.573-6.353-4.194-1.715-1.623-3.008-3.294-3.881-5.009-0.87-1.715-1.306-3.125-1.306-4.235s0.435-2.519 1.306-4.235c0.873-1.715 2.165-3.386 3.881-5.009 1.715-1.621 3.831-3.021 6.353-4.194 2.519-1.175 5.429-1.762 8.727-1.762s6.208 0.587 8.727 1.762c2.522 1.173 4.638 2.573 6.353 4.194 1.715 1.623 3.008 3.294 3.881 5.009 0.87 1.715 1.306 3.125 1.306 4.235s-0.435 2.519-1.306 4.235c-0.873 1.715-2.165 3.386-3.881 5.009-1.715 1.621-3.831 3.021-6.353 4.194-2.519 1.175-5.429 1.762-8.727 1.762zM20.267 3.364c-2.876 0-5.37 0.508-7.482 1.525-2.11 1.015-3.866 2.189-5.265 3.522-1.397 1.333-2.441 2.652-3.125 3.957-0.687 1.308-1.030 2.251-1.030 2.831s0.343 1.523 1.030 2.831c0.685 1.306 1.728 2.624 3.125 3.957 1.399 1.333 3.155 2.507 5.265 3.522 2.112 1.018 4.606 1.525 7.482 1.525s5.37-0.508 7.482-1.525c2.11-1.015 3.866-2.189 5.265-3.522 1.397-1.333 2.441-2.652 3.125-3.957 0.687-1.308 1.030-2.251 1.030-2.831s-0.343-1.523-1.030-2.831c-0.685-1.306-1.728-2.624-3.125-3.957-1.399-1.333-3.155-2.507-5.265-3.522-2.112-1.018-4.606-1.525-7.482-1.525zM20.267 23.631c-1.161 0-2.257-0.218-3.285-0.653s-1.926-1.037-2.692-1.801c-0.764-0.766-1.365-1.664-1.801-2.692s-0.653-2.125-0.653-3.285c0-1.161 0.218-2.257 0.653-3.285s1.037-1.926 1.801-2.692c0.766-0.764 1.664-1.365 2.692-1.801s2.125-0.653 3.285-0.653c1.161 0 2.257 0.218 3.285 0.653s1.926 1.037 2.692 1.801c0.764 0.766 1.365 1.664 1.801 2.692s0.653 2.125 0.653 3.285c0 1.161-0.218 2.257-0.653 3.285s-1.037 1.926-1.801 2.692c-0.766 0.764-1.664 1.365-2.692 1.801s-2.125 0.653-3.285 0.653zM20.267 10.133c-1.399 0-2.592 0.495-3.582 1.485s-1.485 2.182-1.485 3.582c0 1.399 0.495 2.592 1.485 3.582s2.182 1.485 3.582 1.485c1.399 0 2.592-0.495 3.582-1.485s1.485-2.182 1.485-3.582c0-1.399-0.495-2.592-1.485-3.582s-2.182-1.485-3.582-1.485z"></path>
</svg>
