<!-- Generated by IcoMoon.io -->
<svg version="1.1" xmlns="http://www.w3.org/2000/svg" width="1024" height="1024" viewBox="0 0 1024 1024">
<title></title>
<g id="icomoon-ignore">
</g>
<path d="M945.112 641.963c-14.086 0-25.503 11.417-25.503 25.503v226.438c-0.050 42.239-34.27 76.469-76.509 76.509h-715.586c-42.239-0.040-76.459-34.27-76.509-76.509v-664.58c0.050-42.229 34.27-76.459 76.509-76.509h226.438c14.086 0 25.503-11.417 25.503-25.503 0-14.076-11.417-25.503-25.503-25.503h-226.438c-70.392 0.080-127.435 57.123-127.515 127.515v664.59c0.080 70.392 57.123 127.435 127.515 127.515h715.586c70.392-0.080 127.435-57.123 127.515-127.515v-226.448c0-14.086-11.417-25.503-25.503-25.503z"></path>
<path d="M960.513 36.19c-44.819-44.819-117.483-44.819-162.302 0l-454.988 454.988c-3.118 3.118-5.37 6.983-6.545 11.227l-59.832 216.008c-2.461 8.856 0.040 18.34 6.535 24.845 6.505 6.495 15.989 8.996 24.845 6.545l216.008-59.842c4.244-1.176 8.109-3.427 11.227-6.545l454.978-454.998c44.75-44.849 44.75-117.453 0-162.302zM398.792 507.754l372.372-372.382 120.093 120.093-372.382 372.382zM374.803 555.891l95.945 95.955-132.715 36.77zM954.376 192.355l-27.047 27.047-120.103-120.103 27.057-27.047c24.895-24.895 65.262-24.895 90.157 0l29.936 29.926c24.855 24.925 24.855 65.262 0 90.177z"></path>
</svg>
