<!-- Generated by IcoMoon.io -->
<svg version="1.1" xmlns="http://www.w3.org/2000/svg" width="1030" height="1024" viewBox="0 0 1030 1024">
<title></title>
<g id="icomoon-ignore">
</g>
<path d="M433.4 783.059c-199.805 0-368.758-163.076-368.758-362.881s163.076-362.881 368.758-362.881c199.805 0 368.758 163.076 368.758 362.881s-168.953 362.881-368.758 362.881zM1018.123 972.58l-265.917-258.571c70.519-76.396 113.125-173.36 113.125-286.485 0-238.003-195.397-427.524-433.4-427.524s-431.931 188.052-431.931 426.055c0 232.126 195.397 427.524 433.4 427.524 102.841 0 199.805-38.198 270.324-96.964l265.917 260.040c10.284 10.284 32.321 10.284 48.482 0 16.161-11.753 16.161-32.321 0-44.075z"></path>
</svg>
