<!-- Generated by IcoMoon.io -->
<svg version="1.1" xmlns="http://www.w3.org/2000/svg" width="816" height="1024" viewBox="0 0 816 1024">
<title></title>
<g id="icomoon-ignore">
</g>
<path d="M735.788 446.24h-15.059v-133.408c0-172.434-140.196-312.842-312.842-312.842-172.434 0-312.842 140.196-312.842 312.842 0 15.907 12.726 28.633 28.633 28.633s28.633-12.726 28.633-28.633c0-140.832 114.532-255.576 255.576-255.576 140.832 0 255.576 114.532 255.576 255.576v133.408h-583.264c-30.542 0-55.357 24.815-55.357 55.357v356.534c0 91.413 74.446 165.859 165.859 165.859h434.585c91.413 0 165.859-74.446 165.859-165.859v-356.534c0-30.542-24.815-55.357-55.357-55.357zM733.879 858.131c0 59.811-48.57 108.593-108.593 108.593h-434.373c-59.811 0-108.593-48.57-108.593-108.593v-354.625h651.559v354.625z"></path>
<path d="M408.099 846.466c59.175 0 107.109-48.146 107.109-107.109 0-59.175-48.146-107.109-107.109-107.109-59.175 0-107.109 48.146-107.109 107.109s47.934 107.109 107.109 107.109zM408.099 689.302c27.572 0 49.843 22.482 49.843 49.843s-22.27 50.055-49.843 50.055-49.843-22.482-49.843-49.843 22.27-50.055 49.843-50.055z"></path>
</svg>
