<!-- Generated by IcoMoon.io -->
<svg version="1.1" xmlns="http://www.w3.org/2000/svg" width="52" height="32" viewBox="0 0 52 32">
<title>slick-arow-left</title>
<path d="M0.204 14.368c-0.137 0.239-0.204 0.503-0.204 0.794s0.067 0.57 0.204 0.844c0.035 0.137 0.096 0.265 0.18 0.384s0.177 0.23 0.282 0.332l13.039 12.989c0.204 0.204 0.442 0.367 0.716 0.486s0.547 0.177 0.817 0.177c0.273 0 0.547-0.058 0.82-0.177 0.271-0.119 0.509-0.282 0.716-0.486 0.407-0.41 0.614-0.913 0.614-1.51s-0.207-1.114-0.614-1.559l-9.359-9.306h42.595c0.582 0 1.082-0.212 1.51-0.64 0.425-0.425 0.64-0.928 0.64-1.507 0-0.614-0.215-1.135-0.64-1.559-0.428-0.428-0.928-0.64-1.51-0.64h-42.595l9.359-9.306c0.407-0.41 0.614-0.913 0.614-1.51s-0.207-1.117-0.614-1.559c-0.445-0.41-0.963-0.614-1.562-0.614-0.596 0-1.097 0.204-1.507 0.614l-13.039 13.039c-0.105 0.105-0.198 0.215-0.282 0.335s-0.145 0.247-0.18 0.381z"></path>
</svg>
