<!-- Generated by IcoMoon.io -->
<svg version="1.1" xmlns="http://www.w3.org/2000/svg" width="52" height="32" viewBox="0 0 52 32">
<title>slick-arow-right</title>
<path d="M51.953 14.368c0.137 0.239 0.207 0.503 0.207 0.794s-0.070 0.57-0.207 0.844c-0.032 0.137-0.093 0.265-0.177 0.384s-0.18 0.23-0.282 0.332l-13.039 12.989c-0.207 0.204-0.445 0.367-0.716 0.486-0.273 0.119-0.547 0.177-0.82 0.177-0.271 0-0.544-0.058-0.817-0.177s-0.512-0.282-0.716-0.486c-0.41-0.41-0.614-0.913-0.614-1.51s0.204-1.114 0.614-1.559l9.359-9.306h-42.598c-0.579 0-1.082-0.212-1.507-0.64-0.428-0.425-0.64-0.928-0.64-1.507 0-0.614 0.212-1.135 0.64-1.559 0.425-0.428 0.928-0.64 1.507-0.64h42.598l-9.359-9.306c-0.41-0.41-0.614-0.913-0.614-1.51s0.204-1.117 0.614-1.559c0.442-0.41 0.963-0.614 1.559-0.614s1.1 0.204 1.51 0.614l13.039 13.039c0.102 0.105 0.198 0.215 0.282 0.335s0.145 0.247 0.177 0.381z"></path>
</svg>
