<!-- Generated by IcoMoon.io -->
<svg version="1.1" xmlns="http://www.w3.org/2000/svg" width="1024" height="1024" viewBox="0 0 1024 1024">
<title></title>
<g id="icomoon-ignore">
</g>
<path d="M512 320c-35.2 0-64 28.8-64 64v256c0 105.8-86.2 192-192 192s-192-86.2-192-192v-128h128v128c0 35.2 28.8 64 64 64s64-28.8 64-64v-256c0-105.8 86.2-192 192-192s192 86.2 192 178v62l-82 24-46-24v-62c0-21.2-28.8-50-64-50z"></path>
<path d="M960 640c0 105.8-86.2 192-192 192s-192-86.2-192-206v-124l46 24 82-24v124c0 49.2 28.8 78 64 78s64-28.8 64-64v-128h128v128z"></path>
</svg>
