<!-- Generated by IcoMoon.io -->
<svg version="1.1" xmlns="http://www.w3.org/2000/svg" width="1371" height="1024" viewBox="0 0 1371 1024">
<title></title>
<g id="icomoon-ignore">
</g>
<path d="M57.844 1022.437c-15.634 0-28.14-6.253-40.647-17.197-10.944-10.944-17.197-25.014-17.197-40.647v-567.499c0-15.634 6.253-29.704 17.197-40.647s25.014-17.197 40.647-17.197h315.798l267.334-320.489c10.944-12.507 26.577-18.76 43.774-18.76 18.76 0 32.831 6.253 43.774 18.76l268.898 320.489h315.798c15.634 0 29.704 6.253 40.647 17.197s17.197 25.014 17.197 40.647v569.063c0 15.634-6.253 28.14-17.197 40.647-10.944 10.944-25.014 17.197-40.647 17.197l-1255.377-1.563zM115.689 454.937v454.937h1142.815v-454.937h-1142.815zM522.162 340.812h326.742l-162.589-195.42-164.153 195.42z"></path>
</svg>
