<!-- Generated by IcoMoon.io -->
<svg version="1.1" xmlns="http://www.w3.org/2000/svg" width="1260" height="1024" viewBox="0 0 1260 1024">
<title></title>
<g id="icomoon-ignore">
</g>
<path d="M1260.426 121.283c-46.057 19.958-96.72 33.775-148.918 39.916 53.733-32.24 93.649-82.903 113.607-142.777-49.127 29.169-105.931 50.663-164.27 62.945-47.592-50.663-113.607-81.367-188.834-81.367-142.777 0-257.919 116.678-257.919 257.919 0 19.958 3.070 39.916 6.141 59.874-213.397-10.747-405.301-113.607-532.726-270.201-23.028 38.381-35.31 82.903-35.31 130.495 0 89.043 46.057 168.876 115.142 214.933-42.987-1.535-82.903-13.817-116.678-32.24 0 1.535 0 3.070 0 3.070 0 125.889 89.043 228.75 207.256 253.313-21.493 6.141-44.522 9.211-67.55 9.211-16.888 0-32.24-1.535-49.127-4.606 32.24 102.861 127.424 176.552 241.031 179.622-89.043 69.085-199.58 110.537-320.864 110.537-21.493 0-41.451-1.535-62.945-3.070 113.607 73.691 250.243 116.678 396.090 116.678 474.387 0 735.376-393.019 735.376-735.376 0-10.747 0-23.028-1.535-33.775 52.198-38.381 96.72-82.903 132.030-135.1z"></path>
</svg>
