<!-- Generated by IcoMoon.io -->
<svg version="1.1" xmlns="http://www.w3.org/2000/svg" width="1088" height="1024" viewBox="0 0 1088 1024">
<title></title>
<g id="icomoon-ignore">
</g>
<path d="M542.197 65.675c-120.91 0-219.27 98.36-219.27 219.258 0 120.91 98.36 219.258 219.27 219.258 120.921 0 219.303-98.349 219.303-219.258 0-120.899-98.382-219.258-219.303-219.258zM542.197 569.627c-156.984 0-284.705-127.711-284.705-284.694 0-156.494 127.722-283.826 284.705-283.826 157.006 0 284.739 127.332 284.739 283.826 0 156.984-127.733 284.694-284.739 284.694z"></path>
<path d="M365.89 696.982c-146.198 0-271.059 109.267-290.426 254.175l-0.846 6.3h938.763l-0.835-6.289c-19.267-144.918-144.15-254.186-290.482-254.186h-356.174zM40.014 1022.892c-18.354 0-32.735-14.381-32.735-32.735 0-197.743 160.868-358.611 358.611-358.611h356.174c197.766 0 358.656 160.868 358.656 358.611 0 18.354-14.381 32.735-32.746 32.735h-1007.961z"></path>
</svg>
