<?xml version="1.0" encoding="UTF-8" standalone="no"?><!DOCTYPE svg PUBLIC "-//W3C//DTD SVG 1.1//EN" "http://www.w3.org/Graphics/SVG/1.1/DTD/svg11.dtd"><svg width="100%" height="100%" viewBox="0 0 125 78" version="1.1" xmlns="http://www.w3.org/2000/svg" xmlns:xlink="http://www.w3.org/1999/xlink" xml:space="preserve" xmlns:serif="http://www.serif.com/" style="fill-rule:evenodd;clip-rule:evenodd;stroke-linejoin:round;stroke-miterlimit:1.41421;"><path d="M123.93,72.713c0,2.309 -1.871,4.18 -4.18,4.18l-115.069,0c-2.309,0 -4.181,-1.871 -4.181,-4.18l0,-68.031c0,-2.311 1.872,-4.182 4.181,-4.182l115.069,0c2.309,0 4.18,1.871 4.18,4.182l0,68.031Z" style="fill:#f9f9f9;fill-rule:nonzero;stroke:#dfdfdf;stroke-width:1px;"/><path d="M57.222,50.472l-6.126,0l3.829,-23.535l6.128,0l-3.831,23.535Z" style="fill:#0066b2;fill-rule:nonzero;"/><path d="M45.94,26.937l-5.841,16.187l-0.692,-3.485l0,0.001l-2.062,-10.584c0,0 -0.248,-2.119 -2.906,-2.119l-9.657,0l-0.113,0.399c0,0 2.954,0.613 6.411,2.69l5.322,20.446l6.384,0l9.749,-23.535l-6.595,0Z" style="fill:#0066b2;fill-rule:nonzero;"/><path d="M87.393,42.148l3.219,-8.809l1.812,8.809l-5.031,0Zm6.742,8.324l5.626,0l-4.905,-23.534l-4.925,0c-2.275,0 -2.83,1.753 -2.83,1.753l-9.138,21.781l6.387,0l1.277,-3.495l7.789,0l0.719,3.495Z" style="fill:#0066b2;fill-rule:nonzero;"/><path d="M78.442,32.596l0.874,-5.054c0,0 -2.699,-1.026 -5.51,-1.026c-3.042,0 -10.262,1.33 -10.262,7.791c0,6.081 8.476,6.157 8.476,9.349c0,3.192 -7.602,2.622 -10.112,0.608l-0.911,5.283c0,0 2.736,1.33 6.917,1.33c4.18,0 10.49,-2.166 10.49,-8.057c0,-6.119 -8.551,-6.69 -8.551,-9.349c0,-2.662 5.967,-2.32 8.589,-0.875" style="fill:#0066b2;fill-rule:nonzero;"/><path d="M39.407,39.64l-2.062,-10.583c0,0 -0.248,-2.12 -2.906,-2.12l-9.657,0l-0.112,0.399c0,0 4.642,0.962 9.094,4.565c4.257,3.446 5.643,7.739 5.643,7.739" style="fill:#f9a533;fill-rule:nonzero;"/></svg>
