<!-- Generated by IcoMoon.io -->
<svg version="1.1" xmlns="http://www.w3.org/2000/svg" width="1120" height="1024" viewBox="0 0 1120 1024">
<title></title>
<g id="icomoon-ignore">
</g>
<path d="M560 1024c-38.4 0-73.6-16-99.2-44.8l-374.4-460.8c-54.4-57.6-86.4-134.4-86.4-214.4s32-156.8 89.6-214.4c54.4-57.6 131.2-89.6 214.4-89.6 80 0 156.8 32 211.2 89.6l41.6 35.2 44.8-35.2c57.6-57.6 131.2-89.6 214.4-89.6 80 0 156.8 32 214.4 89.6s89.6 134.4 89.6 214.4c0 80-32 156.8-86.4 214.4l-377.6 460.8c-25.6 28.8-60.8 44.8-96 44.8zM160 460.8l374.4 457.6c12.8 16 38.4 16 51.2 0l374.4-457.6c0-3.2 3.2-3.2 3.2-6.4 38.4-38.4 60.8-92.8 60.8-150.4s-22.4-108.8-60.8-150.4c-38.4-41.6-92.8-60.8-147.2-60.8s-108.8 22.4-147.2 60.8c0 0 0 0-3.2 3.2 0 0 0 0-3.2 3.2l-70.4 60.8c-16 19.2-44.8 19.2-64 3.2l-73.6-64c0 0 0 0-3.2-3.2s0 0-3.2-3.2c-38.4-38.4-92.8-60.8-147.2-60.8-57.6 0-108.8 22.4-147.2 60.8-38.4 41.6-60.8 96-60.8 150.4 0 57.6 22.4 108.8 60.8 150.4 3.2 3.2 3.2 3.2 6.4 6.4z"></path>
</svg>
