<!-- Generated by IcoMoon.io -->
<svg version="1.1" xmlns="http://www.w3.org/2000/svg" width="1451" height="1024" viewBox="0 0 1451 1024">
<title></title>
<g id="icomoon-ignore">
</g>
<path d="M569.515 656.725v-383.232l387.669 192.768-387.669 190.464zM717.739 0c-301.995 0-502.272 13.739-502.272 13.739-27.989 2.987-89.685 2.987-144.128 57.856 0 0-44.117 41.131-56.917 135.595-15.189 110.507-14.421 220.928-14.421 220.928v103.68c0 0-0.768 110.421 14.421 220.928 12.8 93.696 56.917 135.595 56.917 135.595 54.443 54.101 126.549 52.565 158.549 57.856 0 0 114.517 10.667 487.851 13.739 301.995 0 502.187-14.507 502.187-14.507 28.075-2.987 89.771-2.987 144.213-57.088 0 0 44.032-41.899 56.832-135.595 15.275-110.507 14.421-220.928 14.421-220.928v-103.68c0 0 0.853-110.421-14.421-220.928-12.8-94.464-56.832-135.595-56.832-135.595-54.443-54.869-116.139-54.869-144.213-57.856 0 0-200.192-13.739-502.187-13.739z"></path>
</svg>
